<svg version="1.1" viewBox="0.0 0.0 711.3254593175853 255.9028871391076" fill="none" stroke="none" stroke-linecap="square" stroke-miterlimit="10" xmlns:xlink="http://www.w3.org/1999/xlink" xmlns="http://www.w3.org/2000/svg"><clipPath id="p.0"><path d="m0 0l711.32544 0l0 255.9029l-711.32544 0l0 -255.9029z" clip-rule="nonzero"/></clipPath><g clip-path="url(#p.0)"><path fill="#000000" fill-opacity="0.0" d="m0 0l711.32544 0l0 255.9029l-711.32544 0z" fill-rule="evenodd"/><path fill="#ffd966" d="m385.92026 78.642426l0 0c0 -4.082054 3.309143 -7.39122 7.391205 -7.39122l29.564026 0l0 0c1.9602661 0 3.8402405 0.77871704 5.2263794 2.1648407c1.3861084 1.3861237 2.1648254 3.2661057 2.1648254 5.2263794l0 29.56401c0 4.082062 -3.309143 7.3912277 -7.391205 7.3912277l-29.564026 0c-4.082062 0 -7.391205 -3.309166 -7.391205 -7.3912277z" fill-rule="evenodd"/><path stroke="#000000" stroke-width="4.0" stroke-linejoin="round" stroke-linecap="butt" d="m385.92026 78.642426l0 0c0 -4.082054 3.309143 -7.39122 7.391205 -7.39122l29.564026 0l0 0c1.9602661 0 3.8402405 0.77871704 5.2263794 2.1648407c1.3861084 1.3861237 2.1648254 3.2661057 2.1648254 5.2263794l0 29.56401c0 4.082062 -3.309143 7.3912277 -7.391205 7.3912277l-29.564026 0c-4.082062 0 -7.391205 -3.309166 -7.391205 -7.3912277z" fill-rule="evenodd"/><path fill="#8e7cc3" d="m88.16662 78.642426l0 0c0 -4.082054 3.309166 -7.39122 7.3912277 -7.39122l29.564003 0l0 0c1.9602737 0 3.8402634 0.77871704 5.226387 2.1648407c1.3861237 1.3861237 2.1648407 3.2661057 2.1648407 5.2263794l0 29.56401c0 4.082062 -3.3091583 7.3912277 -7.3912277 7.3912277l-29.564003 0c-4.082062 0 -7.3912277 -3.309166 -7.3912277 -7.3912277z" fill-rule="evenodd"/><path fill="#8e7cc3" d="m147.71735 78.642426l0 0c0 -4.082054 3.3091583 -7.39122 7.39122 -7.39122l29.56401 0l0 0c1.9602814 0 3.8402557 0.77871704 5.2263794 2.1648407c1.3861237 1.3861237 2.1648407 3.2661057 2.1648407 5.2263794l0 29.56401c0 4.082062 -3.3091583 7.3912277 -7.39122 7.3912277l-29.56401 0c-4.082062 0 -7.39122 -3.309166 -7.39122 -7.3912277z" fill-rule="evenodd"/><path fill="#ffd966" d="m207.26807 78.642426l0 0c0 -4.082054 3.3091583 -7.39122 7.39122 -7.39122l29.56401 0l0 0c1.9602814 0 3.840271 0.77871704 5.2263947 2.1648407c1.3861237 1.3861237 2.1648407 3.2661057 2.1648407 5.2263794l0 29.56401c0 4.082062 -3.3091736 7.3912277 -7.3912354 7.3912277l-29.56401 0c-4.082062 0 -7.39122 -3.309166 -7.39122 -7.3912277z" fill-rule="evenodd"/><path stroke="#000000" stroke-width="4.0" stroke-linejoin="round" stroke-linecap="butt" d="m207.26807 78.642426l0 0c0 -4.082054 3.3091583 -7.39122 7.39122 -7.39122l29.56401 0l0 0c1.9602814 0 3.840271 0.77871704 5.2263947 2.1648407c1.3861237 1.3861237 2.1648407 3.2661057 2.1648407 5.2263794l0 29.56401c0 4.082062 -3.3091736 7.3912277 -7.3912354 7.3912277l-29.56401 0c-4.082062 0 -7.39122 -3.309166 -7.39122 -7.3912277z" fill-rule="evenodd"/><path fill="#ffd966" d="m266.8188 78.642426l0 0c0 -4.082054 3.3091736 -7.39122 7.3912354 -7.39122l29.563995 0l0 0c1.9602966 0 3.840271 0.77871704 5.2263794 2.1648407c1.3861389 1.3861237 2.164856 3.2661057 2.164856 5.2263794l0 29.56401c0 4.082062 -3.3091736 7.3912277 -7.3912354 7.3912277l-29.563995 0c-4.082062 0 -7.3912354 -3.309166 -7.3912354 -7.3912277z" fill-rule="evenodd"/><path stroke="#000000" stroke-width="4.0" stroke-linejoin="round" stroke-linecap="butt" d="m266.8188 78.642426l0 0c0 -4.082054 3.3091736 -7.39122 7.3912354 -7.39122l29.563995 0l0 0c1.9602966 0 3.840271 0.77871704 5.2263794 2.1648407c1.3861389 1.3861237 2.164856 3.2661057 2.164856 5.2263794l0 29.56401c0 4.082062 -3.3091736 7.3912277 -7.3912354 7.3912277l-29.563995 0c-4.082062 0 -7.3912354 -3.309166 -7.3912354 -7.3912277z" fill-rule="evenodd"/><path fill="#ffd966" d="m326.3695 78.642426l0 0c0 -4.082054 3.3091736 -7.39122 7.3912354 -7.39122l29.563995 0l0 0c1.9602966 0 3.840271 0.77871704 5.22641 2.1648407c1.3861084 1.3861237 2.1648254 3.2661057 2.1648254 5.2263794l0 29.56401c0 4.082062 -3.3091736 7.3912277 -7.3912354 7.3912277l-29.563995 0c-4.082062 0 -7.3912354 -3.309166 -7.3912354 -7.3912277z" fill-rule="evenodd"/><path stroke="#000000" stroke-width="4.0" stroke-linejoin="round" stroke-linecap="butt" d="m326.3695 78.642426l0 0c0 -4.082054 3.3091736 -7.39122 7.3912354 -7.39122l29.563995 0l0 0c1.9602966 0 3.840271 0.77871704 5.22641 2.1648407c1.3861084 1.3861237 2.1648254 3.2661057 2.1648254 5.2263794l0 29.56401c0 4.082062 -3.3091736 7.3912277 -7.3912354 7.3912277l-29.563995 0c-4.082062 0 -7.3912354 -3.309166 -7.3912354 -7.3912277z" fill-rule="evenodd"/><path fill="#ffd966" d="m389.54184 141.89453l0 0c0 -4.082062 3.309143 -7.39122 7.391205 -7.39122l29.564026 0l0 0c1.9602661 0 3.8402405 0.77871704 5.2263794 2.1648407c1.3861084 1.3861237 2.1648254 3.2661133 2.1648254 5.2263794l0 29.56401c0 4.082062 -3.309143 7.39122 -7.391205 7.39122l-29.564026 0c-4.082062 0 -7.391205 -3.3091583 -7.391205 -7.39122z" fill-rule="evenodd"/><path fill="#8e7cc3" d="m91.7882 141.89453l0 0c0 -4.082062 3.309166 -7.39122 7.39122 -7.39122l29.564018 0l0 0c1.9602661 0 3.8402557 0.77871704 5.2263794 2.1648407c1.3861237 1.3861237 2.1648407 3.2661133 2.1648407 5.2263794l0 29.56401c0 4.082062 -3.3091583 7.39122 -7.39122 7.39122l-29.564018 0c-4.082054 0 -7.39122 -3.3091583 -7.39122 -7.39122z" fill-rule="evenodd"/><path fill="#ffd966" d="m151.33893 141.89453l0 0c0 -4.082062 3.3091583 -7.39122 7.39122 -7.39122l29.56401 0l0 0c1.9602661 0 3.8402557 0.77871704 5.2263794 2.1648407c1.3861237 1.3861237 2.1648407 3.2661133 2.1648407 5.2263794l0 29.56401c0 4.082062 -3.3091583 7.39122 -7.39122 7.39122l-29.56401 0c-4.082062 0 -7.39122 -3.3091583 -7.39122 -7.39122z" fill-rule="evenodd"/><path stroke="#000000" stroke-width="4.0" stroke-linejoin="round" stroke-linecap="butt" d="m151.33893 141.89453l0 0c0 -4.082062 3.3091583 -7.39122 7.39122 -7.39122l29.56401 0l0 0c1.9602661 0 3.8402557 0.77871704 5.2263794 2.1648407c1.3861237 1.3861237 2.1648407 3.2661133 2.1648407 5.2263794l0 29.56401c0 4.082062 -3.3091583 7.39122 -7.39122 7.39122l-29.56401 0c-4.082062 0 -7.39122 -3.3091583 -7.39122 -7.39122z" fill-rule="evenodd"/><path fill="#8e7cc3" d="m210.88965 141.89453l0 0c0 -4.082062 3.3091583 -7.39122 7.39122 -7.39122l29.56401 0l0 0c1.9602814 0 3.840271 0.77871704 5.2263947 2.1648407c1.3861237 1.3861237 2.1648254 3.2661133 2.1648254 5.2263794l0 29.56401c0 4.082062 -3.3091583 7.39122 -7.39122 7.39122l-29.56401 0c-4.082062 0 -7.39122 -3.3091583 -7.39122 -7.39122z" fill-rule="evenodd"/><path stroke="#000000" stroke-width="4.0" stroke-linejoin="round" stroke-linecap="butt" d="m210.88965 141.89453l0 0c0 -4.082062 3.3091583 -7.39122 7.39122 -7.39122l29.56401 0l0 0c1.9602814 0 3.840271 0.77871704 5.2263947 2.1648407c1.3861237 1.3861237 2.1648254 3.2661133 2.1648254 5.2263794l0 29.56401c0 4.082062 -3.3091583 7.39122 -7.39122 7.39122l-29.56401 0c-4.082062 0 -7.39122 -3.3091583 -7.39122 -7.39122z" fill-rule="evenodd"/><path fill="#8e7cc3" d="m270.44037 141.89453l0 0c0 -4.082062 3.3091736 -7.39122 7.3912354 -7.39122l29.563995 0l0 0c1.9602966 0 3.840271 0.77871704 5.2263794 2.1648407c1.3861389 1.3861237 2.164856 3.2661133 2.164856 5.2263794l0 29.56401c0 4.082062 -3.3091736 7.39122 -7.3912354 7.39122l-29.563995 0c-4.082062 0 -7.3912354 -3.3091583 -7.3912354 -7.39122z" fill-rule="evenodd"/><path stroke="#000000" stroke-width="4.0" stroke-linejoin="round" stroke-linecap="butt" d="m270.44037 141.89453l0 0c0 -4.082062 3.3091736 -7.39122 7.3912354 -7.39122l29.563995 0l0 0c1.9602966 0 3.840271 0.77871704 5.2263794 2.1648407c1.3861389 1.3861237 2.164856 3.2661133 2.164856 5.2263794l0 29.56401c0 4.082062 -3.3091736 7.39122 -7.3912354 7.39122l-29.563995 0c-4.082062 0 -7.3912354 -3.3091583 -7.3912354 -7.39122z" fill-rule="evenodd"/><path fill="#8e7cc3" d="m329.9911 141.89453l0 0c0 -4.082062 3.3091736 -7.39122 7.3912354 -7.39122l29.563995 0l0 0c1.9602966 0 3.840271 0.77871704 5.22641 2.1648407c1.3861084 1.3861237 2.1648254 3.2661133 2.1648254 5.2263794l0 29.56401c0 4.082062 -3.3091736 7.39122 -7.3912354 7.39122l-29.563995 0c-4.082062 0 -7.3912354 -3.3091583 -7.3912354 -7.39122z" fill-rule="evenodd"/><path stroke="#000000" stroke-width="4.0" stroke-linejoin="round" stroke-linecap="butt" d="m329.9911 141.89453l0 0c0 -4.082062 3.3091736 -7.39122 7.3912354 -7.39122l29.563995 0l0 0c1.9602966 0 3.840271 0.77871704 5.22641 2.1648407c1.3861084 1.3861237 2.1648254 3.2661133 2.1648254 5.2263794l0 29.56401c0 4.082062 -3.3091736 7.39122 -7.3912354 7.39122l-29.563995 0c-4.082062 0 -7.3912354 -3.3091583 -7.3912354 -7.39122z" fill-rule="evenodd"/><path fill="#ffd966" d="m389.54184 205.14665l0 0c0 -4.082062 3.309143 -7.3912354 7.391205 -7.3912354l29.564026 0l0 0c1.9602661 0 3.8402405 0.77871704 5.2263794 2.1648407c1.3861084 1.3861237 2.1648254 3.2661133 2.1648254 5.2263947l0 29.563995c0 4.082062 -3.309143 7.3912354 -7.391205 7.3912354l-29.564026 0c-4.082062 0 -7.391205 -3.3091736 -7.391205 -7.3912354z" fill-rule="evenodd"/><path fill="#ffd966" d="m91.7882 205.14665l0 0c0 -4.082062 3.309166 -7.3912354 7.39122 -7.3912354l29.564018 0l0 0c1.9602661 0 3.8402557 0.77871704 5.2263794 2.1648407c1.3861237 1.3861237 2.1648407 3.2661133 2.1648407 5.2263947l0 29.563995c0 4.082062 -3.3091583 7.3912354 -7.39122 7.3912354l-29.564018 0c-4.082054 0 -7.39122 -3.3091736 -7.39122 -7.3912354z" fill-rule="evenodd"/><path stroke="#000000" stroke-width="4.0" stroke-linejoin="round" stroke-linecap="butt" d="m91.7882 205.14665l0 0c0 -4.082062 3.309166 -7.3912354 7.39122 -7.3912354l29.564018 0l0 0c1.9602661 0 3.8402557 0.77871704 5.2263794 2.1648407c1.3861237 1.3861237 2.1648407 3.2661133 2.1648407 5.2263947l0 29.563995c0 4.082062 -3.3091583 7.3912354 -7.39122 7.3912354l-29.564018 0c-4.082054 0 -7.39122 -3.3091736 -7.39122 -7.3912354z" fill-rule="evenodd"/><path fill="#ffd966" d="m151.33893 205.14665l0 0c0 -4.082062 3.3091583 -7.3912354 7.39122 -7.3912354l29.56401 0l0 0c1.9602661 0 3.8402557 0.77871704 5.2263794 2.1648407c1.3861237 1.3861237 2.1648407 3.2661133 2.1648407 5.2263947l0 29.563995c0 4.082062 -3.3091583 7.3912354 -7.39122 7.3912354l-29.56401 0c-4.082062 0 -7.39122 -3.3091736 -7.39122 -7.3912354z" fill-rule="evenodd"/><path fill="#ffd966" d="m210.88965 205.14665l0 0c0 -4.082062 3.3091583 -7.3912354 7.39122 -7.3912354l29.56401 0l0 0c1.9602814 0 3.840271 0.77871704 5.2263947 2.1648407c1.3861237 1.3861237 2.1648254 3.2661133 2.1648254 5.2263947l0 29.563995c0 4.082062 -3.3091583 7.3912354 -7.39122 7.3912354l-29.56401 0c-4.082062 0 -7.39122 -3.3091736 -7.39122 -7.3912354z" fill-rule="evenodd"/><path stroke="#000000" stroke-width="4.0" stroke-linejoin="round" stroke-linecap="butt" d="m210.88965 205.14665l0 0c0 -4.082062 3.3091583 -7.3912354 7.39122 -7.3912354l29.56401 0l0 0c1.9602814 0 3.840271 0.77871704 5.2263947 2.1648407c1.3861237 1.3861237 2.1648254 3.2661133 2.1648254 5.2263947l0 29.563995c0 4.082062 -3.3091583 7.3912354 -7.39122 7.3912354l-29.56401 0c-4.082062 0 -7.39122 -3.3091736 -7.39122 -7.3912354z" fill-rule="evenodd"/><path fill="#ffd966" d="m270.44037 205.14665l0 0c0 -4.082062 3.3091736 -7.3912354 7.3912354 -7.3912354l29.563995 0l0 0c1.9602966 0 3.840271 0.77871704 5.2263794 2.1648407c1.3861389 1.3861237 2.164856 3.2661133 2.164856 5.2263947l0 29.563995c0 4.082062 -3.3091736 7.3912354 -7.3912354 7.3912354l-29.563995 0c-4.082062 0 -7.3912354 -3.3091736 -7.3912354 -7.3912354z" fill-rule="evenodd"/><path stroke="#000000" stroke-width="4.0" stroke-linejoin="round" stroke-linecap="butt" d="m270.44037 205.14665l0 0c0 -4.082062 3.3091736 -7.3912354 7.3912354 -7.3912354l29.563995 0l0 0c1.9602966 0 3.840271 0.77871704 5.2263794 2.1648407c1.3861389 1.3861237 2.164856 3.2661133 2.164856 5.2263947l0 29.563995c0 4.082062 -3.3091736 7.3912354 -7.3912354 7.3912354l-29.563995 0c-4.082062 0 -7.3912354 -3.3091736 -7.3912354 -7.3912354z" fill-rule="evenodd"/><path fill="#ffd966" d="m329.9911 205.14665l0 0c0 -4.082062 3.3091736 -7.3912354 7.3912354 -7.3912354l29.563995 0l0 0c1.9602966 0 3.840271 0.77871704 5.22641 2.1648407c1.3861084 1.3861237 2.1648254 3.2661133 2.1648254 5.2263947l0 29.563995c0 4.082062 -3.3091736 7.3912354 -7.3912354 7.3912354l-29.563995 0c-4.082062 0 -7.3912354 -3.3091736 -7.3912354 -7.3912354z" fill-rule="evenodd"/><path stroke="#000000" stroke-width="4.0" stroke-linejoin="round" stroke-linecap="butt" d="m329.9911 205.14665l0 0c0 -4.082062 3.3091736 -7.3912354 7.3912354 -7.3912354l29.563995 0l0 0c1.9602966 0 3.840271 0.77871704 5.22641 2.1648407c1.3861084 1.3861237 2.1648254 3.2661133 2.1648254 5.2263947l0 29.563995c0 4.082062 -3.3091736 7.3912354 -7.3912354 7.3912354l-29.563995 0c-4.082062 0 -7.3912354 -3.3091736 -7.3912354 -7.3912354z" fill-rule="evenodd"/><path fill="#8e7cc3" d="m385.92026 15.39032l0 0c0 -4.082061 3.309143 -7.391224 7.391205 -7.391224l29.564026 0l0 0c1.9602661 0 3.8402405 0.7787161 5.2263794 2.1648388c1.3861084 1.3861237 2.1648254 3.2661104 2.1648254 5.226385l0 29.56401c0 4.082058 -3.309143 7.391224 -7.391205 7.391224l-29.564026 0c-4.082062 0 -7.391205 -3.309166 -7.391205 -7.391224z" fill-rule="evenodd"/><path fill="#8e7cc3" d="m88.16662 15.39032l0 0c0 -4.082061 3.309166 -7.391224 7.3912277 -7.391224l29.564003 0l0 0c1.9602737 0 3.8402634 0.7787161 5.226387 2.1648388c1.3861237 1.3861237 2.1648407 3.2661104 2.1648407 5.226385l0 29.56401c0 4.082058 -3.3091583 7.391224 -7.3912277 7.391224l-29.564003 0c-4.082062 0 -7.3912277 -3.309166 -7.3912277 -7.391224z" fill-rule="evenodd"/><path fill="#8e7cc3" d="m147.71735 15.39032l0 0c0 -4.082061 3.3091583 -7.391224 7.39122 -7.391224l29.56401 0l0 0c1.9602814 0 3.8402557 0.7787161 5.2263794 2.1648388c1.3861237 1.3861237 2.1648407 3.2661104 2.1648407 5.226385l0 29.56401c0 4.082058 -3.3091583 7.391224 -7.39122 7.391224l-29.56401 0c-4.082062 0 -7.39122 -3.309166 -7.39122 -7.391224z" fill-rule="evenodd"/><path fill="#8e7cc3" d="m207.26807 15.39032l0 0c0 -4.082061 3.3091583 -7.391224 7.39122 -7.391224l29.56401 0l0 0c1.9602814 0 3.840271 0.7787161 5.2263947 2.1648388c1.3861237 1.3861237 2.1648407 3.2661104 2.1648407 5.226385l0 29.56401c0 4.082058 -3.3091736 7.391224 -7.3912354 7.391224l-29.56401 0c-4.082062 0 -7.39122 -3.309166 -7.39122 -7.391224z" fill-rule="evenodd"/><path fill="#8e7cc3" d="m266.8188 15.39032l0 0c0 -4.082061 3.3091736 -7.391224 7.3912354 -7.391224l29.563995 0l0 0c1.9602966 0 3.840271 0.7787161 5.2263794 2.1648388c1.3861389 1.3861237 2.164856 3.2661104 2.164856 5.226385l0 29.56401c0 4.082058 -3.3091736 7.391224 -7.3912354 7.391224l-29.563995 0c-4.082062 0 -7.3912354 -3.309166 -7.3912354 -7.391224z" fill-rule="evenodd"/><path fill="#8e7cc3" d="m326.3695 15.39032l0 0c0 -4.082061 3.3091736 -7.391224 7.3912354 -7.391224l29.563995 0l0 0c1.9602966 0 3.840271 0.7787161 5.22641 2.1648388c1.3861084 1.3861237 2.1648254 3.2661104 2.1648254 5.226385l0 29.56401c0 4.082058 -3.3091736 7.391224 -7.3912354 7.391224l-29.563995 0c-4.082062 0 -7.3912354 -3.309166 -7.3912354 -7.391224z" fill-rule="evenodd"/><path fill="#8e7cc3" d="m506.3314 136.16872l0 0c0 -2.316452 1.8778381 -4.1943054 4.1943054 -4.1943054l16.776733 0l0 0c1.1123657 0 2.1792603 0.44189453 2.9658203 1.2284851c0.78656006 0.7865906 1.2284546 1.8534241 1.2284546 2.9658203l0 16.776733c0 2.3164673 -1.8778076 4.1943207 -4.194275 4.1943207l-16.776733 0c-2.3164673 0 -4.1943054 -1.8778534 -4.1943054 -4.1943207z" fill-rule="evenodd"/><path fill="#ffd966" d="m506.3314 172.10272l0 0c0 -2.316452 1.8778381 -4.1943054 4.1943054 -4.1943054l16.776733 0l0 0c1.1123657 0 2.1792603 0.44189453 2.9658203 1.2284698c0.78656006 0.7865906 1.2284546 1.8534393 1.2284546 2.9658356l0 16.776733c0 2.316452 -1.8778076 4.1943054 -4.194275 4.1943054l-16.776733 0c-2.3164673 0 -4.1943054 -1.8778534 -4.1943054 -4.1943054z" fill-rule="evenodd"/><path fill="#000000" fill-opacity="0.0" d="m543.65735 127.22857l106.70868 0l0 35.55906l-106.70868 0z" fill-rule="evenodd"/><path fill="#000000" d="m559.40735 149.02856l-6.328125 0l0 -1.078125l0.4375 -0.046875q0.390625 -0.03125 0.390625 -0.375l0 -6.1875l-0.75 -0.046875l0 -1.125l3.203125 0l0 1.078125l-0.4375 0.03125q-0.390625 0.046875 -0.390625 0.4375l0 5.9375l2.21875 0q0.1875 0 0.234375 -0.09375q0.0625 -0.109375 0.0625 -0.328125l0 -0.9375l1.359375 0.09375l0 2.640625zm3.2666016 -6.703125l0 5.59375l0.75 0.046875l0 1.0625l-3.171875 0l0 -1.015625l0.4375 -0.03125q0.390625 -0.046875 0.390625 -0.4375l0 -3.703125q0 -0.21875 -0.078125 -0.296875q-0.0625 -0.09375 -0.25 -0.09375l-0.46875 -0.015625l0 -1.109375l2.390625 0zm-1.6875 -1.140625q-0.28125 -0.28125 -0.28125 -0.703125q0 -0.4375 0.28125 -0.71875q0.28125 -0.296875 0.734375 -0.296875q0.453125 0 0.734375 0.296875q0.296875 0.28125 0.296875 0.71875q0 0.421875 -0.296875 0.703125q-0.28125 0.265625 -0.734375 0.265625q-0.453125 0 -0.734375 -0.265625zm9.148193 7.828125q-0.125 1.484375 -0.859375 2.171875q-0.734375 0.703125 -2.296875 0.703125q-1.546875 0 -2.4375 -0.453125l0 -1.84375l1.265625 -0.109375l0 0.640625q0 0.359375 0.328125 0.484375q0.34375 0.125 0.9375 0.125q0.84375 0 1.1875 -0.515625q0.34375 -0.5 0.34375 -1.4375l0 -0.734375q-0.625 0.75 -1.765625 0.75q-0.6875 0 -1.21875 -0.265625q-0.53125 -0.265625 -0.8125 -0.71875q-0.578125 -0.90625 -0.578125 -2.140625q0 -1.75 0.9375 -2.640625q0.953125 -0.90625 2.53125 -0.90625q1.296875 0 2.453125 0.5l0 4.9375q0 1.140625 -0.015625 1.453125zm-1.53125 -2.703125l0 -2.859375q-0.453125 -0.171875 -1.0625 -0.171875q-0.8125 0 -1.25 0.609375q-0.421875 0.59375 -0.421875 1.625q0 2.109375 1.375 2.109375q0.578125 0 0.96875 -0.359375q0.390625 -0.359375 0.390625 -0.953125zm3.6567383 1.21875l0 -6.484375q0 -0.21875 -0.078125 -0.296875q-0.0625 -0.078125 -0.25 -0.09375l-0.46875 -0.015625l0 -1.109375l2.375 0l0 3.578125q0.6875 -0.984375 1.9375 -0.984375q1.015625 0 1.5625 0.578125q0.5625 0.578125 0.5625 1.75l0 3.46875l0.765625 0.046875l0 1.0625l-3.171875 0l0 -1.015625l0.4375 -0.03125q0.203125 -0.03125 0.28125 -0.109375q0.09375 -0.09375 0.09375 -0.34375l0 -2.734375q0 -0.703125 -0.21875 -1.0625q-0.21875 -0.375 -0.859375 -0.375q-0.625 0 -1.0 0.390625q-0.375 0.390625 -0.375 0.953125l0 3.21875l0.75 0.046875l0 1.0625l-3.171875 0l0 -1.015625l0.4375 -0.03125q0.203125 -0.03125 0.296875 -0.109375q0.09375 -0.09375 0.09375 -0.34375zm8.668701 -6.609375l0.859375 0l0 1.40625l1.78125 0l-0.140625 1.125l-1.640625 0l0 3.5q0 0.578125 0.21875 0.8125q0.21875 0.234375 0.65625 0.234375q0.453125 0 0.90625 -0.28125l0.390625 1.03125q-0.65625 0.46875 -1.6875 0.46875q-0.59375 0 -1.015625 -0.15625q-0.40625 -0.15625 -0.609375 -0.34375q-0.203125 -0.1875 -0.3125 -0.546875q-0.109375 -0.359375 -0.125 -0.5625q0 -0.203125 0 -0.609375l0 -3.546875l-0.953125 0l0.140625 -0.984375q0.625 -0.046875 0.9375 -0.4375q0.328125 -0.390625 0.59375 -1.109375zm6.7996826 7.703125l0 -7.640625q0 -0.3125 -0.34375 -0.328125l-0.453125 -0.015625l0 -1.109375l2.34375 0l0 3.15625q0.59375 -0.5625 1.609375 -0.5625q1.25 0 1.984375 0.84375q0.734375 0.84375 0.734375 2.390625q0 3.84375 -3.234375 3.84375q-0.6875 0 -1.453125 -0.171875q-0.765625 -0.15625 -1.1875 -0.40625zm1.546875 -4.3125l0 3.453125q0.5 0.265625 1.171875 0.265625q1.515625 0 1.515625 -2.46875q0 -2.25 -1.5 -2.25q-0.46875 0 -0.828125 0.28125q-0.359375 0.28125 -0.359375 0.71875zm12.332336 3.671875l0 1.046875l-2.15625 0l0 -0.859375q-0.734375 1.03125 -2.15625 1.03125q-2.0625 0 -2.0625 -2.296875l0 -3.09375q0 -0.359375 -0.34375 -0.359375l-0.421875 -0.03125l0 -1.09375l2.34375 0l0 4.21875q0 0.71875 0.203125 1.078125q0.203125 0.359375 0.828125 0.359375q0.625 0 1.0 -0.390625q0.390625 -0.390625 0.390625 -0.9375l0 -2.8125q0 -0.203125 -0.078125 -0.296875q-0.078125 -0.09375 -0.265625 -0.09375l-0.421875 -0.03125l0 -1.09375l2.34375 0l0 5.21875q0 0.21875 0.0625 0.296875q0.078125 0.0625 0.265625 0.09375l0.46875 0.046875zm3.205017 -8.453125l0 8.390625l0.75 0.046875l0 1.0625l-3.171875 0l0 -1.015625l0.453125 -0.03125q0.375 -0.046875 0.375 -0.4375l0 -6.5625q0 -0.296875 -0.328125 -0.328125l-0.46875 -0.015625l0 -1.109375l2.390625 0zm2.1748657 9.09375l0 -7.640625q0 -0.3125 -0.34375 -0.328125l-0.453125 -0.015625l0 -1.109375l2.34375 0l0 3.15625q0.59375 -0.5625 1.609375 -0.5625q1.25 0 1.984375 0.84375q0.734375 0.84375 0.734375 2.390625q0 3.84375 -3.234375 3.84375q-0.6875 0 -1.453125 -0.171875q-0.765625 -0.15625 -1.1875 -0.40625zm1.546875 -4.3125l0 3.453125q0.5 0.265625 1.171875 0.265625q1.515625 0 1.515625 -2.46875q0 -2.25 -1.5 -2.25q-0.46875 0 -0.828125 0.28125q-0.359375 0.28125 -0.359375 0.71875zm10.997925 3.75q1.453125 0 1.453125 -2.34375q0 -1.1875 -0.328125 -1.796875q-0.3125 -0.625 -1.09375 -0.625q-0.765625 0 -1.125 0.59375q-0.359375 0.578125 -0.359375 1.59375q0 1.875 0.703125 2.359375q0.296875 0.21875 0.75 0.21875zm-3.0625 -2.390625q0 -0.984375 0.296875 -1.703125q0.296875 -0.734375 0.78125 -1.125q0.953125 -0.71875 2.09375 -0.71875q0.796875 0 1.34375 0.265625q0.5625 0.25 0.875 0.59375q0.3125 0.34375 0.53125 1.0q0.21875 0.640625 0.21875 1.515625q0 1.84375 -0.890625 2.796875q-0.890625 0.9375 -2.28125 0.9375q-1.390625 0 -2.1875 -0.890625q-0.78125 -0.90625 -0.78125 -2.671875zm7.8809814 1.859375l0 -4.078125l-1.140625 0l0 -1.125l1.140625 0l0 -0.5q0 -1.3125 0.59375 -1.890625q0.5625 -0.546875 1.640625 -0.546875q1.078125 0 1.921875 0.46875l-0.390625 1.0625q-0.640625 -0.328125 -1.203125 -0.328125q-0.546875 0 -0.765625 0.28125q-0.21875 0.265625 -0.21875 0.828125l0 0.625l1.984375 0l0 1.125l-1.984375 0l0 4.453125l1.125 0.0625l0 1.0625l-3.53125 0l0 -1.015625l0.4375 -0.03125q0.203125 -0.03125 0.296875 -0.109375q0.09375 -0.09375 0.09375 -0.34375zm4.9313965 0l0 -4.078125l-1.140625 0l0 -1.125l1.140625 0l0 -0.5q0 -1.3125 0.59375 -1.890625q0.5625 -0.546875 1.640625 -0.546875q1.078125 0 1.921875 0.46875l-0.390625 1.0625q-0.640625 -0.328125 -1.203125 -0.328125q-0.546875 0 -0.765625 0.28125q-0.21875 0.265625 -0.21875 0.828125l0 0.625l1.984375 0l0 1.125l-1.984375 0l0 4.453125l1.125 0.0625l0 1.0625l-3.53125 0l0 -1.015625l0.4375 -0.03125q0.203125 -0.03125 0.296875 -0.109375q0.09375 -0.09375 0.09375 -0.34375z" fill-rule="nonzero"/><path fill="#000000" fill-opacity="0.0" d="m543.65735 163.16273l106.70868 0l0 35.55905l-106.70868 0z" fill-rule="evenodd"/><path fill="#000000" d="m559.40735 184.96274l-6.328125 0l0 -1.078125l0.4375 -0.046875q0.390625 -0.03125 0.390625 -0.375l0 -6.1875l-0.75 -0.046875l0 -1.125l3.203125 0l0 1.078125l-0.4375 0.03125q-0.390625 0.046875 -0.390625 0.4375l0 5.9375l2.21875 0q0.1875 0 0.234375 -0.09375q0.0625 -0.109375 0.0625 -0.328125l0 -0.9375l1.359375 0.09375l0 2.640625zm3.2666016 -6.703125l0 5.59375l0.75 0.046875l0 1.0625l-3.171875 0l0 -1.015625l0.4375 -0.03125q0.390625 -0.046875 0.390625 -0.4375l0 -3.703125q0 -0.21875 -0.078125 -0.296875q-0.0625 -0.09375 -0.25 -0.09375l-0.46875 -0.015625l0 -1.109375l2.390625 0zm-1.6875 -1.140625q-0.28125 -0.28125 -0.28125 -0.703125q0 -0.4375 0.28125 -0.71875q0.28125 -0.296875 0.734375 -0.296875q0.453125 0 0.734375 0.296875q0.296875 0.28125 0.296875 0.71875q0 0.421875 -0.296875 0.703125q-0.28125 0.265625 -0.734375 0.265625q-0.453125 0 -0.734375 -0.265625zm9.148193 7.828125q-0.125 1.484375 -0.859375 2.171875q-0.734375 0.703125 -2.296875 0.703125q-1.546875 0 -2.4375 -0.453125l0 -1.84375l1.265625 -0.109375l0 0.640625q0 0.359375 0.328125 0.484375q0.34375 0.125 0.9375 0.125q0.84375 0 1.1875 -0.515625q0.34375 -0.5 0.34375 -1.4375l0 -0.734375q-0.625 0.75 -1.765625 0.75q-0.6875 0 -1.21875 -0.265625q-0.53125 -0.265625 -0.8125 -0.71875q-0.578125 -0.90625 -0.578125 -2.140625q0 -1.75 0.9375 -2.640625q0.953125 -0.90625 2.53125 -0.90625q1.296875 0 2.453125 0.5l0 4.9375q0 1.140625 -0.015625 1.453125zm-1.53125 -2.703125l0 -2.859375q-0.453125 -0.171875 -1.0625 -0.171875q-0.8125 0 -1.25 0.609375q-0.421875 0.59375 -0.421875 1.625q0 2.109375 1.375 2.109375q0.578125 0 0.96875 -0.359375q0.390625 -0.359375 0.390625 -0.953125zm3.6567383 1.21875l0 -6.484375q0 -0.21875 -0.078125 -0.296875q-0.0625 -0.078125 -0.25 -0.09375l-0.46875 -0.015625l0 -1.109375l2.375 0l0 3.578125q0.6875 -0.984375 1.9375 -0.984375q1.015625 0 1.5625 0.578125q0.5625 0.578125 0.5625 1.75l0 3.46875l0.765625 0.046875l0 1.0625l-3.171875 0l0 -1.015625l0.4375 -0.03125q0.203125 -0.03125 0.28125 -0.109375q0.09375 -0.09375 0.09375 -0.34375l0 -2.734375q0 -0.703125 -0.21875 -1.0625q-0.21875 -0.375 -0.859375 -0.375q-0.625 0 -1.0 0.390625q-0.375 0.390625 -0.375 0.953125l0 3.21875l0.75 0.046875l0 1.0625l-3.171875 0l0 -1.015625l0.4375 -0.03125q0.203125 -0.03125 0.296875 -0.109375q0.09375 -0.09375 0.09375 -0.34375zm8.668701 -6.609375l0.859375 0l0 1.40625l1.78125 0l-0.140625 1.125l-1.640625 0l0 3.5q0 0.578125 0.21875 0.8125q0.21875 0.234375 0.65625 0.234375q0.453125 0 0.90625 -0.28125l0.390625 1.03125q-0.65625 0.46875 -1.6875 0.46875q-0.59375 0 -1.015625 -0.15625q-0.40625 -0.15625 -0.609375 -0.34375q-0.203125 -0.1875 -0.3125 -0.546875q-0.109375 -0.359375 -0.125 -0.5625q0 -0.203125 0 -0.609375l0 -3.546875l-0.953125 0l0.140625 -0.984375q0.625 -0.046875 0.9375 -0.4375q0.328125 -0.390625 0.59375 -1.109375zm6.7996826 7.703125l0 -7.640625q0 -0.3125 -0.34375 -0.328125l-0.453125 -0.015625l0 -1.109375l2.34375 0l0 3.15625q0.59375 -0.5625 1.609375 -0.5625q1.25 0 1.984375 0.84375q0.734375 0.84375 0.734375 2.390625q0 3.84375 -3.234375 3.84375q-0.6875 0 -1.453125 -0.171875q-0.765625 -0.15625 -1.1875 -0.40625zm1.546875 -4.3125l0 3.453125q0.5 0.265625 1.171875 0.265625q1.515625 0 1.515625 -2.46875q0 -2.25 -1.5 -2.25q-0.46875 0 -0.828125 0.28125q-0.359375 0.28125 -0.359375 0.71875zm12.332336 3.671875l0 1.046875l-2.15625 0l0 -0.859375q-0.734375 1.03125 -2.15625 1.03125q-2.0625 0 -2.0625 -2.296875l0 -3.09375q0 -0.359375 -0.34375 -0.359375l-0.421875 -0.03125l0 -1.09375l2.34375 0l0 4.21875q0 0.71875 0.203125 1.078125q0.203125 0.359375 0.828125 0.359375q0.625 0 1.0 -0.390625q0.390625 -0.390625 0.390625 -0.9375l0 -2.8125q0 -0.203125 -0.078125 -0.296875q-0.078125 -0.09375 -0.265625 -0.09375l-0.421875 -0.03125l0 -1.09375l2.34375 0l0 5.21875q0 0.21875 0.0625 0.296875q0.078125 0.0625 0.265625 0.09375l0.46875 0.046875zm3.205017 -8.453125l0 8.390625l0.75 0.046875l0 1.0625l-3.171875 0l0 -1.015625l0.453125 -0.03125q0.375 -0.046875 0.375 -0.4375l0 -6.5625q0 -0.296875 -0.328125 -0.328125l-0.46875 -0.015625l0 -1.109375l2.390625 0zm2.1748657 9.09375l0 -7.640625q0 -0.3125 -0.34375 -0.328125l-0.453125 -0.015625l0 -1.109375l2.34375 0l0 3.15625q0.59375 -0.5625 1.609375 -0.5625q1.25 0 1.984375 0.84375q0.734375 0.84375 0.734375 2.390625q0 3.84375 -3.234375 3.84375q-0.6875 0 -1.453125 -0.171875q-0.765625 -0.15625 -1.1875 -0.40625zm1.546875 -4.3125l0 3.453125q0.5 0.265625 1.171875 0.265625q1.515625 0 1.515625 -2.46875q0 -2.25 -1.5 -2.25q-0.46875 0 -0.828125 0.28125q-0.359375 0.28125 -0.359375 0.71875zm10.997925 3.75q1.453125 0 1.453125 -2.34375q0 -1.1875 -0.328125 -1.796875q-0.3125 -0.625 -1.09375 -0.625q-0.765625 0 -1.125 0.59375q-0.359375 0.578125 -0.359375 1.59375q0 1.875 0.703125 2.359375q0.296875 0.21875 0.75 0.21875zm-3.0625 -2.390625q0 -0.984375 0.296875 -1.703125q0.296875 -0.734375 0.78125 -1.125q0.953125 -0.71875 2.09375 -0.71875q0.796875 0 1.34375 0.265625q0.5625 0.25 0.875 0.59375q0.3125 0.34375 0.53125 1.0q0.21875 0.640625 0.21875 1.515625q0 1.84375 -0.890625 2.796875q-0.890625 0.9375 -2.28125 0.9375q-1.390625 0 -2.1875 -0.890625q-0.78125 -0.90625 -0.78125 -2.671875zm6.9591064 -2.28125l0 -1.0625l2.25 0l0 0.859375q0.34375 -0.484375 0.921875 -0.765625q0.578125 -0.296875 1.234375 -0.296875q1.015625 0 1.5625 0.578125q0.5625 0.578125 0.5625 1.75l0 3.46875l0.765625 0.046875l0 1.0625l-3.171875 0l0 -1.015625l0.4375 -0.03125q0.203125 -0.03125 0.28125 -0.109375q0.09375 -0.09375 0.09375 -0.34375l0 -2.734375q0 -0.734375 -0.234375 -1.078125q-0.21875 -0.359375 -0.859375 -0.359375q-0.625 0 -1.0 0.40625q-0.359375 0.390625 -0.359375 0.9375l0 3.21875l0.75 0.046875l0 1.0625l-3.171875 0l0 -1.015625l0.4375 -0.03125q0.203125 -0.03125 0.296875 -0.109375q0.09375 -0.09375 0.09375 -0.34375l0 -3.6875q0 -0.390625 -0.328125 -0.40625l-0.5625 -0.046875z" fill-rule="nonzero"/><path fill="#000000" fill-opacity="0.0" d="m506.3304 216.71097l0 0c0 -2.316452 1.8778687 -4.1943054 4.1943054 -4.1943054l16.776733 0l0 0c1.1124268 0 2.1792603 0.44189453 2.9658203 1.2284851c0.7866211 0.7865906 1.2285156 1.8534241 1.2285156 2.9658203l0 16.776733c0 2.3164673 -1.8778687 4.1943207 -4.194336 4.1943207l-16.776733 0c-2.3164368 0 -4.1943054 -1.8778534 -4.1943054 -4.1943207z" fill-rule="evenodd"/><path stroke="#000000" stroke-width="4.0" stroke-linejoin="round" stroke-linecap="butt" d="m506.3304 216.71097l0 0c0 -2.316452 1.8778687 -4.1943054 4.1943054 -4.1943054l16.776733 0l0 0c1.1124268 0 2.1792603 0.44189453 2.9658203 1.2284851c0.7866211 0.7865906 1.2285156 1.8534241 1.2285156 2.9658203l0 16.776733c0 2.3164673 -1.8778687 4.1943207 -4.194336 4.1943207l-16.776733 0c-2.3164368 0 -4.1943054 -1.8778534 -4.1943054 -4.1943207z" fill-rule="evenodd"/><path fill="#000000" fill-opacity="0.0" d="m543.65735 199.0969l176.3465 0l0 51.716537l-176.3465 0z" fill-rule="evenodd"/><path fill="#000000" d="m559.40735 220.8969l-6.328125 0l0 -1.078125l0.4375 -0.046875q0.390625 -0.03125 0.390625 -0.375l0 -6.1875l-0.75 -0.046875l0 -1.125l3.203125 0l0 1.078125l-0.4375 0.03125q-0.390625 0.046875 -0.390625 0.4375l0 5.9375l2.21875 0q0.1875 0 0.234375 -0.09375q0.0625 -0.109375 0.0625 -0.328125l0 -0.9375l1.359375 0.09375l0 2.640625zm3.2666016 -6.703125l0 5.59375l0.75 0.046875l0 1.0625l-3.171875 0l0 -1.015625l0.4375 -0.03125q0.390625 -0.046875 0.390625 -0.4375l0 -3.703125q0 -0.21875 -0.078125 -0.296875q-0.0625 -0.09375 -0.25 -0.09375l-0.46875 -0.015625l0 -1.109375l2.390625 0zm-1.6875 -1.140625q-0.28125 -0.28125 -0.28125 -0.703125q0 -0.4375 0.28125 -0.71875q0.28125 -0.296875 0.734375 -0.296875q0.453125 0 0.734375 0.296875q0.296875 0.28125 0.296875 0.71875q0 0.421875 -0.296875 0.703125q-0.28125 0.265625 -0.734375 0.265625q-0.453125 0 -0.734375 -0.265625zm9.148193 7.828125q-0.125 1.484375 -0.859375 2.171875q-0.734375 0.703125 -2.296875 0.703125q-1.546875 0 -2.4375 -0.453125l0 -1.84375l1.265625 -0.109375l0 0.640625q0 0.359375 0.328125 0.484375q0.34375 0.125 0.9375 0.125q0.84375 0 1.1875 -0.515625q0.34375 -0.5 0.34375 -1.4375l0 -0.734375q-0.625 0.75 -1.765625 0.75q-0.6875 0 -1.21875 -0.265625q-0.53125 -0.265625 -0.8125 -0.71875q-0.578125 -0.90625 -0.578125 -2.140625q0 -1.75 0.9375 -2.640625q0.953125 -0.90625 2.53125 -0.90625q1.296875 0 2.453125 0.5l0 4.9375q0 1.140625 -0.015625 1.453125zm-1.53125 -2.703125l0 -2.859375q-0.453125 -0.171875 -1.0625 -0.171875q-0.8125 0 -1.25 0.609375q-0.421875 0.59375 -0.421875 1.625q0 2.109375 1.375 2.109375q0.578125 0 0.96875 -0.359375q0.390625 -0.359375 0.390625 -0.953125zm3.6567383 1.21875l0 -6.484375q0 -0.21875 -0.078125 -0.296875q-0.0625 -0.078125 -0.25 -0.09375l-0.46875 -0.015625l0 -1.109375l2.375 0l0 3.578125q0.6875 -0.984375 1.9375 -0.984375q1.015625 0 1.5625 0.578125q0.5625 0.578125 0.5625 1.75l0 3.46875l0.765625 0.046875l0 1.0625l-3.171875 0l0 -1.015625l0.4375 -0.03125q0.203125 -0.03125 0.28125 -0.109375q0.09375 -0.09375 0.09375 -0.34375l0 -2.734375q0 -0.703125 -0.21875 -1.0625q-0.21875 -0.375 -0.859375 -0.375q-0.625 0 -1.0 0.390625q-0.375 0.390625 -0.375 0.953125l0 3.21875l0.75 0.046875l0 1.0625l-3.171875 0l0 -1.015625l0.4375 -0.03125q0.203125 -0.03125 0.296875 -0.109375q0.09375 -0.09375 0.09375 -0.34375zm8.668701 -6.609375l0.859375 0l0 1.40625l1.78125 0l-0.140625 1.125l-1.640625 0l0 3.5q0 0.578125 0.21875 0.8125q0.21875 0.234375 0.65625 0.234375q0.453125 0 0.90625 -0.28125l0.390625 1.03125q-0.65625 0.46875 -1.6875 0.46875q-0.59375 0 -1.015625 -0.15625q-0.40625 -0.15625 -0.609375 -0.34375q-0.203125 -0.1875 -0.3125 -0.546875q-0.109375 -0.359375 -0.125 -0.5625q0 -0.203125 0 -0.609375l0 -3.546875l-0.953125 0l0.140625 -0.984375q0.625 -0.046875 0.9375 -0.4375q0.328125 -0.390625 0.59375 -1.109375zm6.7996826 7.703125l0 -7.640625q0 -0.3125 -0.34375 -0.328125l-0.453125 -0.015625l0 -1.109375l2.34375 0l0 3.15625q0.59375 -0.5625 1.609375 -0.5625q1.25 0 1.984375 0.84375q0.734375 0.84375 0.734375 2.390625q0 3.84375 -3.234375 3.84375q-0.6875 0 -1.453125 -0.171875q-0.765625 -0.15625 -1.1875 -0.40625zm1.546875 -4.3125l0 3.453125q0.5 0.265625 1.171875 0.265625q1.515625 0 1.515625 -2.46875q0 -2.25 -1.5 -2.25q-0.46875 0 -0.828125 0.28125q-0.359375 0.28125 -0.359375 0.71875zm12.332336 3.671875l0 1.046875l-2.15625 0l0 -0.859375q-0.734375 1.03125 -2.15625 1.03125q-2.0625 0 -2.0625 -2.296875l0 -3.09375q0 -0.359375 -0.34375 -0.359375l-0.421875 -0.03125l0 -1.09375l2.34375 0l0 4.21875q0 0.71875 0.203125 1.078125q0.203125 0.359375 0.828125 0.359375q0.625 0 1.0 -0.390625q0.390625 -0.390625 0.390625 -0.9375l0 -2.8125q0 -0.203125 -0.078125 -0.296875q-0.078125 -0.09375 -0.265625 -0.09375l-0.421875 -0.03125l0 -1.09375l2.34375 0l0 5.21875q0 0.21875 0.0625 0.296875q0.078125 0.0625 0.265625 0.09375l0.46875 0.046875zm3.205017 -8.453125l0 8.390625l0.75 0.046875l0 1.0625l-3.171875 0l0 -1.015625l0.453125 -0.03125q0.375 -0.046875 0.375 -0.4375l0 -6.5625q0 -0.296875 -0.328125 -0.328125l-0.46875 -0.015625l0 -1.109375l2.390625 0zm2.1748657 9.09375l0 -7.640625q0 -0.3125 -0.34375 -0.328125l-0.453125 -0.015625l0 -1.109375l2.34375 0l0 3.15625q0.59375 -0.5625 1.609375 -0.5625q1.25 0 1.984375 0.84375q0.734375 0.84375 0.734375 2.390625q0 3.84375 -3.234375 3.84375q-0.6875 0 -1.453125 -0.171875q-0.765625 -0.15625 -1.1875 -0.40625zm1.546875 -4.3125l0 3.453125q0.5 0.265625 1.171875 0.265625q1.515625 0 1.515625 -2.46875q0 -2.25 -1.5 -2.25q-0.46875 0 -0.828125 0.28125q-0.359375 0.28125 -0.359375 0.71875zm11.435425 -0.96875q-0.328125 -0.125 -0.78125 -0.125q-0.453125 0 -0.734375 0.21875q-0.265625 0.203125 -0.265625 0.5q0 0.296875 0.09375 0.46875q0.109375 0.15625 0.328125 0.28125q0.328125 0.171875 0.796875 0.296875q0.46875 0.125 0.6875 0.203125q0.234375 0.078125 0.5625 0.25q0.34375 0.171875 0.515625 0.375q0.46875 0.484375 0.46875 1.265625q0 1.0 -0.734375 1.5625q-0.71875 0.5625 -1.84375 0.5625q-1.625 0 -2.4375 -0.40625l0 -1.859375l1.1875 -0.09375l0 0.640625q0 0.59375 1.125 0.59375q1.125 0 1.125 -0.8125q0 -0.296875 -0.203125 -0.484375q-0.1875 -0.1875 -0.375 -0.25q-0.1875 -0.078125 -0.453125 -0.140625q-0.25 -0.0625 -0.5 -0.125q-0.25 -0.078125 -0.546875 -0.1875q-0.28125 -0.109375 -0.625 -0.328125q-0.671875 -0.4375 -0.671875 -1.46875q0 -1.03125 0.734375 -1.59375q0.734375 -0.5625 1.84375 -0.5625q1.109375 0 2.203125 0.53125l0 1.609375l-1.203125 0.09375l0 -0.5625q0 -0.34375 -0.296875 -0.453125zm5.8546753 -1.21875q1.0 0 1.578125 0.484375q0.59375 0.484375 0.59375 1.375q0 0.578125 -0.25 1.03125q-0.25 0.4375 -0.625 0.703125q-0.375 0.25 -0.90625 0.40625q-0.890625 0.265625 -2.015625 0.265625q0.046875 0.703125 0.4375 1.140625q0.40625 0.4375 1.234375 0.4375q0.828125 0 1.65625 -0.59375l0.5 1.078125q-0.265625 0.25 -0.90625 0.5q-0.625 0.25 -1.4375 0.25q-1.625 0 -2.390625 -0.890625q-0.75 -0.90625 -0.75 -2.46875q0 -1.578125 0.859375 -2.640625q0.859375 -1.078125 2.421875 -1.078125zm-0.609375 3.0625q0.5 -0.09375 0.90625 -0.390625q0.40625 -0.3125 0.40625 -0.71875q0 -0.8125 -0.796875 -0.8125q-0.734375 0 -1.140625 0.59375q-0.40625 0.59375 -0.4375 1.40625q0.578125 0 1.0625 -0.078125zm6.1070557 -5.65625l0 8.390625l0.75 0.046875l0 1.0625l-3.171875 0l0 -1.015625l0.453125 -0.03125q0.375 -0.046875 0.375 -0.4375l0 -6.5625q0 -0.296875 -0.328125 -0.328125l-0.46875 -0.015625l0 -1.109375l2.390625 0zm4.9249268 2.59375q1.0 0 1.578125 0.484375q0.59375 0.484375 0.59375 1.375q0 0.578125 -0.25 1.03125q-0.25 0.4375 -0.625 0.703125q-0.375 0.25 -0.90625 0.40625q-0.890625 0.265625 -2.015625 0.265625q0.046875 0.703125 0.4375 1.140625q0.40625 0.4375 1.234375 0.4375q0.828125 0 1.65625 -0.59375l0.5 1.078125q-0.265625 0.25 -0.90625 0.5q-0.625 0.25 -1.4375 0.25q-1.625 0 -2.390625 -0.890625q-0.75 -0.90625 -0.75 -2.46875q0 -1.578125 0.859375 -2.640625q0.859375 -1.078125 2.421875 -1.078125zm-0.609375 3.0625q0.5 -0.09375 0.90625 -0.390625q0.40625 -0.3125 0.40625 -0.71875q0 -0.8125 -0.796875 -0.8125q-0.734375 0 -1.140625 0.59375q-0.40625 0.59375 -0.4375 1.40625q0.578125 0 1.0625 -0.078125zm5.3257446 0.421875q0 1.125 0.421875 1.75q0.4375 0.625 1.234375 0.625q0.8125 0 1.59375 -0.5625l0.578125 1.015625q-0.9375 0.78125 -2.375 0.78125q-1.421875 0 -2.25 -0.890625q-0.8125 -0.90625 -0.8125 -2.65625q0 -1.765625 0.9375 -2.65625q0.9375 -0.890625 2.109375 -0.890625q1.1875 0 2.203125 0.546875l0 1.734375l-1.21875 0.09375l0 -0.640625q0 -0.359375 -0.265625 -0.4375q-0.265625 -0.09375 -0.53125 -0.09375q-1.625 0 -1.625 2.28125zm6.152527 -4.6875l0.859375 0l0 1.40625l1.78125 0l-0.140625 1.125l-1.640625 0l0 3.5q0 0.578125 0.21875 0.8125q0.21875 0.234375 0.65625 0.234375q0.453125 0 0.90625 -0.28125l0.390625 1.03125q-0.65625 0.46875 -1.6875 0.46875q-0.59375 0 -1.015625 -0.15625q-0.40625 -0.15625 -0.609375 -0.34375q-0.203125 -0.1875 -0.3125 -0.546875q-0.109375 -0.359375 -0.125 -0.5625q0 -0.203125 0 -0.609375l0 -3.546875l-0.953125 0l0.140625 -0.984375q0.625 -0.046875 0.9375 -0.4375q0.328125 -0.390625 0.59375 -1.109375zm6.884094 1.203125q1.0 0 1.578125 0.484375q0.59375 0.484375 0.59375 1.375q0 0.578125 -0.25 1.03125q-0.25 0.4375 -0.625 0.703125q-0.375 0.25 -0.90625 0.40625q-0.890625 0.265625 -2.015625 0.265625q0.046875 0.703125 0.4375 1.140625q0.40625 0.4375 1.234375 0.4375q0.828125 0 1.65625 -0.59375l0.5 1.078125q-0.265625 0.25 -0.90625 0.5q-0.625 0.25 -1.4375 0.25q-1.625 0 -2.390625 -0.890625q-0.75 -0.90625 -0.75 -2.46875q0 -1.578125 0.859375 -2.640625q0.859375 -1.078125 2.421875 -1.078125zm-0.609375 3.0625q0.5 -0.09375 0.90625 -0.390625q0.40625 -0.3125 0.40625 -0.71875q0 -0.8125 -0.796875 -0.8125q-0.734375 0 -1.140625 0.59375q-0.40625 0.59375 -0.4375 1.40625q0.578125 0 1.0625 -0.078125zm7.0601807 -3.0625q0.578125 0 1.09375 0.15625l0 -1.34375q0 -0.296875 -0.34375 -0.3125l-0.578125 -0.046875l0 -1.046875l2.484375 0l0 8.09375q0.015625 0.3125 0.328125 0.3125l0.46875 0.03125l0 1.0625l-2.15625 0l0 -0.78125l-0.046875 -0.015625q-0.59375 0.96875 -1.8125 0.96875q-1.515625 0 -2.125 -1.015625q-0.5625 -0.921875 -0.5625 -2.25q0 -1.734375 0.859375 -2.765625q0.859375 -1.046875 2.390625 -1.046875zm1.09375 4.828125l0 -3.453125q-0.484375 -0.21875 -1.015625 -0.21875q-0.875 0 -1.28125 0.71875q-0.40625 0.703125 -0.40625 1.796875q0 2.234375 1.4375 2.234375q0.546875 0 0.90625 -0.3125q0.359375 -0.3125 0.359375 -0.765625zm8.860962 1.109375q1.453125 0 1.453125 -2.34375q0 -1.1875 -0.328125 -1.796875q-0.3125 -0.625 -1.09375 -0.625q-0.765625 0 -1.125 0.59375q-0.359375 0.578125 -0.359375 1.59375q0 1.875 0.703125 2.359375q0.296875 0.21875 0.75 0.21875zm-3.0625 -2.390625q0 -0.984375 0.296875 -1.703125q0.296875 -0.734375 0.78125 -1.125q0.953125 -0.71875 2.09375 -0.71875q0.796875 0 1.34375 0.265625q0.5625 0.25 0.875 0.59375q0.3125 0.34375 0.53125 1.0q0.21875 0.640625 0.21875 1.515625q0 1.84375 -0.890625 2.796875q-0.890625 0.9375 -2.28125 0.9375q-1.390625 0 -2.1875 -0.890625q-0.78125 -0.90625 -0.78125 -2.671875zm6.9591064 -2.28125l0 -1.0625l2.25 0l0 0.859375q0.34375 -0.484375 0.921875 -0.765625q0.578125 -0.296875 1.234375 -0.296875q1.015625 0 1.5625 0.578125q0.5625 0.578125 0.5625 1.75l0 3.46875l0.765625 0.046875l0 1.0625l-3.171875 0l0 -1.015625l0.4375 -0.03125q0.203125 -0.03125 0.28125 -0.109375q0.09375 -0.09375 0.09375 -0.34375l0 -2.734375q0 -0.734375 -0.234375 -1.078125q-0.21875 -0.359375 -0.859375 -0.359375q-0.625 0 -1.0 0.40625q-0.359375 0.390625 -0.359375 0.9375l0 3.21875l0.75 0.046875l0 1.0625l-3.171875 0l0 -1.015625l0.4375 -0.03125q0.203125 -0.03125 0.296875 -0.109375q0.09375 -0.09375 0.09375 -0.34375l0 -3.6875q0 -0.390625 -0.328125 -0.40625l-0.5625 -0.046875zm12.224915 -2.46875l0.859375 0l0 1.40625l1.78125 0l-0.140625 1.125l-1.640625 0l0 3.5q0 0.578125 0.21875 0.8125q0.21875 0.234375 0.65625 0.234375q0.453125 0 0.90625 -0.28125l0.390625 1.03125q-0.65625 0.46875 -1.6875 0.46875q-0.59375 0 -1.015625 -0.15625q-0.40625 -0.15625 -0.609375 -0.34375q-0.203125 -0.1875 -0.3125 -0.546875q-0.109375 -0.359375 -0.125 -0.5625q0 -0.203125 0 -0.609375l0 -3.546875l-0.953125 0l0.140625 -0.984375q0.625 -0.046875 0.9375 -0.4375q0.328125 -0.390625 0.59375 -1.109375zm4.352844 6.609375l0 -6.484375q0 -0.21875 -0.078125 -0.296875q-0.0625 -0.078125 -0.25 -0.09375l-0.46875 -0.015625l0 -1.109375l2.375 0l0 3.578125q0.6875 -0.984375 1.9375 -0.984375q1.015625 0 1.5625 0.578125q0.5625 0.578125 0.5625 1.75l0 3.46875l0.765625 0.046875l0 1.0625l-3.171875 0l0 -1.015625l0.4375 -0.03125q0.203125 -0.03125 0.28125 -0.109375q0.09375 -0.09375 0.09375 -0.34375l0 -2.734375q0 -0.703125 -0.21875 -1.0625q-0.21875 -0.375 -0.859375 -0.375q-0.625 0 -1.0 0.390625q-0.375 0.390625 -0.375 0.953125l0 3.21875l0.75 0.046875l0 1.0625l-3.171875 0l0 -1.015625l0.4375 -0.03125q0.203125 -0.03125 0.296875 -0.109375q0.09375 -0.09375 0.09375 -0.34375zm10.528076 -5.40625q1.0 0 1.578125 0.484375q0.59375 0.484375 0.59375 1.375q0 0.578125 -0.25 1.03125q-0.25 0.4375 -0.625 0.703125q-0.375 0.25 -0.90625 0.40625q-0.890625 0.265625 -2.015625 0.265625q0.046875 0.703125 0.4375 1.140625q0.40625 0.4375 1.234375 0.4375q0.828125 0 1.65625 -0.59375l0.5 1.078125q-0.265625 0.25 -0.90625 0.5q-0.625 0.25 -1.4375 0.25q-1.625 0 -2.390625 -0.890625q-0.75 -0.90625 -0.75 -2.46875q0 -1.578125 0.859375 -2.640625q0.859375 -1.078125 2.421875 -1.078125zm-0.609375 3.0625q0.5 -0.09375 0.90625 -0.390625q0.40625 -0.3125 0.40625 -0.71875q0 -0.8125 -0.796875 -0.8125q-0.734375 0 -1.140625 0.59375q-0.40625 0.59375 -0.4375 1.40625q0.578125 0 1.0625 -0.078125z" fill-rule="nonzero"/><path fill="#000000" d="m555.4855 227.3969l0 8.390625l0.75 0.046875l0 1.0625l-3.171875 0l0 -1.015625l0.453125 -0.03125q0.375 -0.046875 0.375 -0.4375l0 -6.5625q0 -0.296875 -0.328125 -0.328125l-0.46875 -0.015625l0 -1.109375l2.390625 0zm7.5655518 3.0625l0 4.953125q0 0.21875 0.078125 0.296875q0.078125 0.078125 0.25 0.09375l0.4375 0.03125l0 1.0625l-2.125 0l0 -0.765625l-0.03125 -0.015625q-0.671875 0.953125 -1.828125 0.953125q-1.359375 0 -2.015625 -0.859375q-0.65625 -0.875 -0.65625 -2.375q0 -1.8125 0.875 -2.828125q0.890625 -1.015625 2.640625 -1.015625q1.140625 0 2.375 0.46875zm-1.546875 4.3125l0 -3.453125q-0.375 -0.171875 -1.015625 -0.171875q-0.90625 0 -1.3125 0.71875q-0.390625 0.71875 -0.390625 1.90625q0 2.171875 1.390625 2.171875q0.578125 0 0.953125 -0.359375q0.375 -0.359375 0.375 -0.8125zm6.619507 -3.5625q-0.328125 -0.125 -0.78125 -0.125q-0.453125 0 -0.734375 0.21875q-0.265625 0.203125 -0.265625 0.5q0 0.296875 0.09375 0.46875q0.109375 0.15625 0.328125 0.28125q0.328125 0.171875 0.796875 0.296875q0.46875 0.125 0.6875 0.203125q0.234375 0.078125 0.5625 0.25q0.34375 0.171875 0.515625 0.375q0.46875 0.484375 0.46875 1.265625q0 1.0 -0.734375 1.5625q-0.71875 0.5625 -1.84375 0.5625q-1.625 0 -2.4375 -0.40625l0 -1.859375l1.1875 -0.09375l0 0.640625q0 0.59375 1.125 0.59375q1.125 0 1.125 -0.8125q0 -0.296875 -0.203125 -0.484375q-0.1875 -0.1875 -0.375 -0.25q-0.1875 -0.078125 -0.453125 -0.140625q-0.25 -0.0625 -0.5 -0.125q-0.25 -0.078125 -0.546875 -0.1875q-0.28125 -0.109375 -0.625 -0.328125q-0.671875 -0.4375 -0.671875 -1.46875q0 -1.03125 0.734375 -1.59375q0.734375 -0.5625 1.84375 -0.5625q1.109375 0 2.203125 0.53125l0 1.609375l-1.203125 0.09375l0 -0.5625q0 -0.34375 -0.296875 -0.453125zm3.8619995 -2.421875l0.859375 0l0 1.40625l1.78125 0l-0.140625 1.125l-1.640625 0l0 3.5q0 0.578125 0.21875 0.8125q0.21875 0.234375 0.65625 0.234375q0.453125 0 0.90625 -0.28125l0.390625 1.03125q-0.65625 0.46875 -1.6875 0.46875q-0.59375 0 -1.015625 -0.15625q-0.40625 -0.15625 -0.609375 -0.34375q-0.203125 -0.1875 -0.3125 -0.546875q-0.109375 -0.359375 -0.125 -0.5625q0 -0.203125 0 -0.609375l0 -3.546875l-0.953125 0l0.140625 -0.984375q0.625 -0.046875 0.9375 -0.4375q0.328125 -0.390625 0.59375 -1.109375zm9.705933 2.421875q-0.328125 -0.125 -0.78125 -0.125q-0.453125 0 -0.734375 0.21875q-0.265625 0.203125 -0.265625 0.5q0 0.296875 0.09375 0.46875q0.109375 0.15625 0.328125 0.28125q0.328125 0.171875 0.796875 0.296875q0.46875 0.125 0.6875 0.203125q0.234375 0.078125 0.5625 0.25q0.34375 0.171875 0.515625 0.375q0.46875 0.484375 0.46875 1.265625q0 1.0 -0.734375 1.5625q-0.71875 0.5625 -1.84375 0.5625q-1.625 0 -2.4375 -0.40625l0 -1.859375l1.1875 -0.09375l0 0.640625q0 0.59375 1.125 0.59375q1.125 0 1.125 -0.8125q0 -0.296875 -0.203125 -0.484375q-0.1875 -0.1875 -0.375 -0.25q-0.1875 -0.078125 -0.453125 -0.140625q-0.25 -0.0625 -0.5 -0.125q-0.25 -0.078125 -0.546875 -0.1875q-0.28125 -0.109375 -0.625 -0.328125q-0.671875 -0.4375 -0.671875 -1.46875q0 -1.03125 0.734375 -1.59375q0.734375 -0.5625 1.84375 -0.5625q1.109375 0 2.203125 0.53125l0 1.609375l-1.203125 0.09375l0 -0.5625q0 -0.34375 -0.296875 -0.453125zm3.8619995 -2.421875l0.859375 0l0 1.40625l1.78125 0l-0.140625 1.125l-1.640625 0l0 3.5q0 0.578125 0.21875 0.8125q0.21875 0.234375 0.65625 0.234375q0.453125 0 0.90625 -0.28125l0.390625 1.03125q-0.65625 0.46875 -1.6875 0.46875q-0.59375 0 -1.015625 -0.15625q-0.40625 -0.15625 -0.609375 -0.34375q-0.203125 -0.1875 -0.3125 -0.546875q-0.109375 -0.359375 -0.125 -0.5625q0 -0.203125 0 -0.609375l0 -3.546875l-0.953125 0l0.140625 -0.984375q0.625 -0.046875 0.9375 -0.4375q0.328125 -0.390625 0.59375 -1.109375zm6.884094 1.203125q1.0 0 1.578125 0.484375q0.59375 0.484375 0.59375 1.375q0 0.578125 -0.25 1.03125q-0.25 0.4375 -0.625 0.703125q-0.375 0.25 -0.90625 0.40625q-0.890625 0.265625 -2.015625 0.265625q0.046875 0.703125 0.4375 1.140625q0.40625 0.4375 1.234375 0.4375q0.828125 0 1.65625 -0.59375l0.5 1.078125q-0.265625 0.25 -0.90625 0.5q-0.625 0.25 -1.4375 0.25q-1.625 0 -2.390625 -0.890625q-0.75 -0.90625 -0.75 -2.46875q0 -1.578125 0.859375 -2.640625q0.859375 -1.078125 2.421875 -1.078125zm-0.609375 3.0625q0.5 -0.09375 0.90625 -0.390625q0.40625 -0.3125 0.40625 -0.71875q0 -0.8125 -0.796875 -0.8125q-0.734375 0 -1.140625 0.59375q-0.40625 0.59375 -0.4375 1.40625q0.578125 0 1.0625 -0.078125zm4.4663696 5.109375l0 -6.453125q0 -0.21875 -0.078125 -0.296875q-0.0625 -0.09375 -0.25 -0.09375l-0.5625 -0.046875l0 -1.078125l2.25 0l0 0.859375q0.21875 -0.390625 0.765625 -0.71875q0.5625 -0.34375 1.34375 -0.34375q2.40625 0 2.40625 3.390625q0 1.796875 -0.796875 2.765625q-0.78125 0.953125 -2.125 0.953125q-0.796875 0 -1.421875 -0.390625l0 1.84375l1.078125 0.046875l0 1.0625l-3.4375 0l0 -1.015625l0.4375 -0.046875q0.203125 -0.03125 0.296875 -0.125q0.09375 -0.078125 0.09375 -0.3125zm4.21875 -4.65625q0 -2.21875 -1.34375 -2.21875q-0.5625 0 -0.953125 0.34375q-0.390625 0.328125 -0.390625 0.796875l0 3.0625q0.5 0.34375 1.21875 0.34375q0.734375 0 1.09375 -0.671875q0.375 -0.671875 0.375 -1.65625z" fill-rule="nonzero"/><path fill="#000000" fill-opacity="0.0" d="m0 74.631035l72.944885 0l0 38.771652l-72.944885 0z" fill-rule="evenodd"/><path fill="#000000" d="m26.284176 97.553535q1.921875 0 1.921875 -1.53125q0 -0.8125 -0.859375 -1.1875q-0.4375 -0.234375 -1.15625 -0.421875q-0.703125 -0.1875 -1.1875 -0.390625q-0.46875 -0.203125 -0.953125 -0.546875q-0.9375 -0.703125 -0.9375 -2.171875q0 -1.46875 1.015625 -2.296875q1.015625 -0.84375 2.65625 -0.84375q1.640625 0 3.046875 0.65625l0 2.390625l-1.625 0.125l0 -0.9375q0 -0.234375 -0.0625 -0.34375q-0.1875 -0.3125 -1.140625 -0.3125q-0.953125 0 -1.40625 0.34375q-0.453125 0.328125 -0.453125 1.03125q0 0.515625 0.390625 0.90625q0.25 0.25 0.75 0.421875q0.515625 0.15625 1.078125 0.34375q0.5625 0.171875 1.0 0.390625q0.453125 0.203125 0.921875 0.5625q0.984375 0.71875 0.984375 2.234375q0 1.5 -1.078125 2.359375q-1.078125 0.859375 -2.859375 0.859375q-1.765625 0 -3.171875 -0.65625l0 -2.515625l1.640625 -0.125l0 0.984375q0 0.234375 0.0625 0.359375q0.0625 0.109375 0.390625 0.21875q0.328125 0.09375 1.03125 0.09375zm6.6295166 -8.3125l1.046875 0l0 1.703125l2.125 0l-0.15625 1.34375l-1.96875 0l0 4.203125q0 0.703125 0.25 0.984375q0.265625 0.28125 0.796875 0.28125q0.53125 0 1.078125 -0.328125l0.484375 1.21875q-0.796875 0.5625 -2.03125 0.5625q-0.71875 0 -1.21875 -0.1875q-0.5 -0.171875 -0.734375 -0.390625q-0.234375 -0.234375 -0.375 -0.65625q-0.125 -0.4375 -0.140625 -0.6875q-0.015625 -0.25 -0.015625 -0.734375l0 -4.265625l-1.140625 0l0.171875 -1.171875q0.75 -0.0625 1.125 -0.53125q0.390625 -0.46875 0.703125 -1.34375zm8.282013 1.46875q1.203125 0 1.90625 0.578125q0.703125 0.578125 0.703125 1.640625q0 0.703125 -0.3125 1.25q-0.296875 0.53125 -0.75 0.828125q-0.453125 0.296875 -1.078125 0.5q-1.078125 0.3125 -2.421875 0.3125q0.046875 0.859375 0.515625 1.375q0.484375 0.515625 1.46875 0.515625q1.0 0 2.0 -0.703125l0.609375 1.296875q-0.328125 0.28125 -1.09375 0.59375q-0.75 0.296875 -1.71875 0.296875q-1.953125 0 -2.875 -1.078125q-0.90625 -1.078125 -0.90625 -2.96875q0 -1.890625 1.03125 -3.15625q1.046875 -1.28125 2.921875 -1.28125zm-0.734375 3.65625q0.59375 -0.109375 1.078125 -0.46875q0.5 -0.359375 0.5 -0.859375q0 -0.96875 -0.953125 -0.96875q-0.90625 0 -1.390625 0.71875q-0.46875 0.703125 -0.515625 1.6875q0.703125 -0.015625 1.28125 -0.109375zm5.3533936 6.140625l0 -7.734375q0 -0.28125 -0.09375 -0.375q-0.078125 -0.109375 -0.296875 -0.109375l-0.671875 -0.046875l0 -1.296875l2.703125 0l0 1.03125q0.25 -0.46875 0.921875 -0.859375q0.671875 -0.40625 1.59375 -0.40625q2.90625 0 2.90625 4.0625q0 2.15625 -0.953125 3.3125q-0.9375 1.140625 -2.5625 1.140625q-0.953125 0 -1.703125 -0.453125l0 2.203125l1.296875 0.0625l0 1.265625l-4.125 0l0 -1.21875l0.515625 -0.046875q0.25 -0.03125 0.359375 -0.140625q0.109375 -0.09375 0.109375 -0.390625zm5.078125 -5.578125q0 -2.671875 -1.625 -2.671875q-0.671875 0 -1.140625 0.40625q-0.46875 0.40625 -0.46875 0.96875l0 3.671875q0.609375 0.40625 1.46875 0.40625q0.875 0 1.3125 -0.796875q0.453125 -0.796875 0.453125 -1.984375zm9.069275 2.125l0 -6.28125l-1.875 0.953125l-0.703125 -1.234375l2.90625 -1.796875l1.578125 0l0 8.859375l1.65625 0.078125l0 1.359375l-5.5625 0l0 -1.3125l1.53125 -0.09375q0.25 -0.015625 0.359375 -0.125q0.109375 -0.109375 0.109375 -0.40625z" fill-rule="nonzero"/><path fill="#000000" fill-opacity="0.0" d="m0 137.88315l72.944885 0l0 38.771652l-72.944885 0z" fill-rule="evenodd"/><path fill="#000000" d="m25.34016 160.80565q1.921875 0 1.921875 -1.53125q0 -0.8125 -0.859375 -1.1875q-0.4375 -0.234375 -1.15625 -0.421875q-0.703125 -0.1875 -1.1875 -0.390625q-0.46875 -0.203125 -0.953125 -0.546875q-0.9375 -0.703125 -0.9375 -2.171875q0 -1.46875 1.015625 -2.296875q1.015625 -0.84375 2.65625 -0.84375q1.640625 0 3.046875 0.65625l0 2.390625l-1.625 0.125l0 -0.9375q0 -0.234375 -0.0625 -0.34375q-0.1875 -0.3125 -1.140625 -0.3125q-0.953125 0 -1.40625 0.34375q-0.453125 0.328125 -0.453125 1.03125q0 0.515625 0.390625 0.90625q0.25 0.25 0.75 0.421875q0.515625 0.15625 1.078125 0.34375q0.5625 0.171875 1.0 0.390625q0.453125 0.203125 0.921875 0.5625q0.984375 0.71875 0.984375 2.234375q0 1.5 -1.078125 2.359375q-1.078125 0.859375 -2.859375 0.859375q-1.765625 0 -3.171875 -0.65625l0 -2.515625l1.640625 -0.125l0 0.984375q0 0.234375 0.0625 0.359375q0.0625 0.109375 0.390625 0.21875q0.328125 0.09375 1.03125 0.09375zm6.6295166 -8.3125l1.046875 0l0 1.703125l2.125 0l-0.15625 1.34375l-1.96875 0l0 4.203125q0 0.703125 0.25 0.984375q0.265625 0.28125 0.796875 0.28125q0.53125 0 1.078125 -0.328125l0.484375 1.21875q-0.796875 0.5625 -2.03125 0.5625q-0.71875 0 -1.21875 -0.1875q-0.5 -0.171875 -0.734375 -0.390625q-0.234375 -0.234375 -0.375 -0.65625q-0.125 -0.4375 -0.140625 -0.6875q-0.015625 -0.25 -0.015625 -0.734375l0 -4.265625l-1.140625 0l0.171875 -1.171875q0.75 -0.0625 1.125 -0.53125q0.390625 -0.46875 0.703125 -1.34375zm8.282013 1.46875q1.203125 0 1.90625 0.578125q0.703125 0.578125 0.703125 1.640625q0 0.703125 -0.3125 1.25q-0.296875 0.53125 -0.75 0.828125q-0.453125 0.296875 -1.078125 0.5q-1.078125 0.3125 -2.421875 0.3125q0.046875 0.859375 0.515625 1.375q0.484375 0.515625 1.46875 0.515625q1.0 0 2.0 -0.703125l0.609375 1.296875q-0.328125 0.28125 -1.09375 0.59375q-0.75 0.296875 -1.71875 0.296875q-1.953125 0 -2.875 -1.078125q-0.90625 -1.078125 -0.90625 -2.96875q0 -1.890625 1.03125 -3.15625q1.046875 -1.28125 2.921875 -1.28125zm-0.734375 3.65625q0.59375 -0.109375 1.078125 -0.46875q0.5 -0.359375 0.5 -0.859375q0 -0.96875 -0.953125 -0.96875q-0.90625 0 -1.390625 0.71875q-0.46875 0.703125 -0.515625 1.6875q0.703125 -0.015625 1.28125 -0.109375zm5.3533936 6.140625l0 -7.734375q0 -0.28125 -0.09375 -0.375q-0.078125 -0.109375 -0.296875 -0.109375l-0.671875 -0.046875l0 -1.296875l2.703125 0l0 1.03125q0.25 -0.46875 0.921875 -0.859375q0.671875 -0.40625 1.59375 -0.40625q2.90625 0 2.90625 4.0625q0 2.15625 -0.953125 3.3125q-0.9375 1.140625 -2.5625 1.140625q-0.953125 0 -1.703125 -0.453125l0 2.203125l1.296875 0.0625l0 1.265625l-4.125 0l0 -1.21875l0.515625 -0.046875q0.25 -0.03125 0.359375 -0.140625q0.109375 -0.09375 0.109375 -0.390625zm5.078125 -5.578125q0 -2.671875 -1.625 -2.671875q-0.671875 0 -1.140625 0.40625q-0.46875 0.40625 -0.46875 0.96875l0 3.671875q0.609375 0.40625 1.46875 0.40625q0.875 0 1.3125 -0.796875q0.453125 -0.796875 0.453125 -1.984375zm6.725525 4.0625l0 -1.234375l3.1875 -4.015625q0.5 -0.640625 0.65625 -0.84375q0.15625 -0.21875 0.3125 -0.609375q0.15625 -0.40625 0.15625 -0.953125q0 -0.546875 -0.375 -0.890625q-0.375 -0.359375 -0.96875 -0.359375q-0.578125 0 -0.875 0.09375q-0.296875 0.09375 -0.359375 0.21875q-0.046875 0.109375 -0.046875 0.375l0 1.125l-1.640625 -0.109375l0 -2.5625q1.515625 -0.75 3.09375 -0.75q1.578125 0 2.375 0.78125q0.8125 0.78125 0.8125 2.125q0 1.34375 -1.359375 2.984375l-2.578125 3.046875l4.0 0l0 1.578125l-6.390625 0z" fill-rule="nonzero"/><path fill="#000000" fill-opacity="0.0" d="m0 201.13525l72.944885 0l0 38.771652l-72.944885 0z" fill-rule="evenodd"/><path fill="#000000" d="m25.196163 224.05775q1.921875 0 1.921875 -1.53125q0 -0.8125 -0.859375 -1.1875q-0.4375 -0.234375 -1.15625 -0.421875q-0.703125 -0.1875 -1.1875 -0.390625q-0.46875 -0.203125 -0.953125 -0.546875q-0.9375 -0.703125 -0.9375 -2.171875q0 -1.46875 1.015625 -2.296875q1.015625 -0.84375 2.65625 -0.84375q1.640625 0 3.046875 0.65625l0 2.390625l-1.625 0.125l0 -0.9375q0 -0.234375 -0.0625 -0.34375q-0.1875 -0.3125 -1.140625 -0.3125q-0.953125 0 -1.40625 0.34375q-0.453125 0.328125 -0.453125 1.03125q0 0.515625 0.390625 0.90625q0.25 0.25 0.75 0.421875q0.515625 0.15625 1.078125 0.34375q0.5625 0.171875 1.0 0.390625q0.453125 0.203125 0.921875 0.5625q0.984375 0.71875 0.984375 2.234375q0 1.5 -1.078125 2.359375q-1.078125 0.859375 -2.859375 0.859375q-1.765625 0 -3.171875 -0.65625l0 -2.515625l1.640625 -0.125l0 0.984375q0 0.234375 0.0625 0.359375q0.0625 0.109375 0.390625 0.21875q0.328125 0.09375 1.03125 0.09375zm6.6295166 -8.3125l1.046875 0l0 1.703125l2.125 0l-0.15625 1.34375l-1.96875 0l0 4.203125q0 0.703125 0.25 0.984375q0.265625 0.28125 0.796875 0.28125q0.53125 0 1.078125 -0.328125l0.484375 1.21875q-0.796875 0.5625 -2.03125 0.5625q-0.71875 0 -1.21875 -0.1875q-0.5 -0.171875 -0.734375 -0.390625q-0.234375 -0.234375 -0.375 -0.65625q-0.125 -0.4375 -0.140625 -0.6875q-0.015625 -0.25 -0.015625 -0.734375l0 -4.265625l-1.140625 0l0.171875 -1.171875q0.75 -0.0625 1.125 -0.53125q0.390625 -0.46875 0.703125 -1.34375zm8.282013 1.46875q1.203125 0 1.90625 0.578125q0.703125 0.578125 0.703125 1.640625q0 0.703125 -0.3125 1.25q-0.296875 0.53125 -0.75 0.828125q-0.453125 0.296875 -1.078125 0.5q-1.078125 0.3125 -2.421875 0.3125q0.046875 0.859375 0.515625 1.375q0.484375 0.515625 1.46875 0.515625q1.0 0 2.0 -0.703125l0.609375 1.296875q-0.328125 0.28125 -1.09375 0.59375q-0.75 0.296875 -1.71875 0.296875q-1.953125 0 -2.875 -1.078125q-0.90625 -1.078125 -0.90625 -2.96875q0 -1.890625 1.03125 -3.15625q1.046875 -1.28125 2.921875 -1.28125zm-0.734375 3.65625q0.59375 -0.109375 1.078125 -0.46875q0.5 -0.359375 0.5 -0.859375q0 -0.96875 -0.953125 -0.96875q-0.90625 0 -1.390625 0.71875q-0.46875 0.703125 -0.515625 1.6875q0.703125 -0.015625 1.28125 -0.109375zm5.3533936 6.140625l0 -7.734375q0 -0.28125 -0.09375 -0.375q-0.078125 -0.109375 -0.296875 -0.109375l-0.671875 -0.046875l0 -1.296875l2.703125 0l0 1.03125q0.25 -0.46875 0.921875 -0.859375q0.671875 -0.40625 1.59375 -0.40625q2.90625 0 2.90625 4.0625q0 2.15625 -0.953125 3.3125q-0.9375 1.140625 -2.5625 1.140625q-0.953125 0 -1.703125 -0.453125l0 2.203125l1.296875 0.0625l0 1.265625l-4.125 0l0 -1.21875l0.515625 -0.046875q0.25 -0.03125 0.359375 -0.140625q0.109375 -0.09375 0.109375 -0.390625zm5.078125 -5.578125q0 -2.671875 -1.625 -2.671875q-0.671875 0 -1.140625 0.40625q-0.46875 0.40625 -0.46875 0.96875l0 3.671875q0.609375 0.40625 1.46875 0.40625q0.875 0 1.3125 -0.796875q0.453125 -0.796875 0.453125 -1.984375zm8.4599 -1.90625l1.640625 0q0.96875 -0.609375 0.96875 -1.71875q0 -1.21875 -1.390625 -1.21875q-0.515625 0 -0.859375 0.109375q-0.34375 0.109375 -0.40625 0.234375q-0.046875 0.109375 -0.046875 0.375l0 1.140625l-1.640625 -0.109375l0 -2.5625q1.609375 -0.796875 3.171875 -0.796875q1.578125 0 2.34375 0.71875q0.78125 0.703125 0.78125 1.84375q0 0.828125 -0.40625 1.515625q-0.390625 0.671875 -1.046875 1.09375q1.609375 0.515625 1.609375 2.265625q0 1.484375 -0.921875 2.390625q-0.90625 0.890625 -2.6875 0.890625q-0.890625 0 -1.765625 -0.234375q-0.859375 -0.234375 -1.375 -0.5625l0.5625 -1.515625q1.265625 0.703125 2.515625 0.703125q1.734375 0 1.734375 -1.546875q0 -0.8125 -0.53125 -1.1875q-0.515625 -0.375 -1.78125 -0.375l-0.609375 0l0.140625 -1.453125z" fill-rule="nonzero"/></g></svg>