<svg version="1.1" viewBox="0.0 0.0 598.5538057742782 174.93963254593177" fill="none" stroke="none" stroke-linecap="square" stroke-miterlimit="10" xmlns:xlink="http://www.w3.org/1999/xlink" xmlns="http://www.w3.org/2000/svg"><clipPath id="p.0"><path d="m0 0l598.55383 0l0 174.93964l-598.55383 0l0 -174.93964z" clip-rule="nonzero"/></clipPath><g clip-path="url(#p.0)"><path fill="#000000" fill-opacity="0.0" d="m0 0l598.55383 0l0 174.93964l-598.55383 0z" fill-rule="evenodd"/><path fill="#000000" fill-opacity="0.0" d="m243.68794 102.23737c0 18.473175 -14.417328 36.938484 -28.83464 36.946358c-14.417328 0.007873535 -28.834656 -18.44168 -28.834656 -36.88336" fill-rule="evenodd"/><path stroke="#666666" stroke-width="3.0" stroke-linejoin="round" stroke-linecap="butt" d="m243.68796 102.237366c0 18.473183 -14.417328 36.93849 -28.834656 36.946365c-7.208664 0.0039367676 -14.417313 -4.606491 -19.823822 -11.523102c-1.3516235 -1.7291565 -2.5906067 -3.6024475 -3.6888123 -5.583809c-0.27453613 -0.49534607 -0.5402832 -0.9974365 -0.79678345 -1.505722c-0.06414795 -0.12706757 -0.12768555 -0.25452423 -0.19065857 -0.38237l-0.18193054 -0.37393188" fill-rule="evenodd"/><path fill="#666666" stroke="#666666" stroke-width="3.0" stroke-linecap="butt" d="m194.99283 118.67162l-7.962372 -12.103859l-1.6806793 14.390213z" fill-rule="evenodd"/><path fill="#000000" fill-opacity="0.0" d="m259.59802 5.7855453l92.031494 0l0 38.771652l-92.031494 0z" fill-rule="evenodd"/><path fill="#666666" d="m277.62158 24.176796l1.640625 0q0.96875 -0.609375 0.96875 -1.71875q0 -1.21875 -1.390625 -1.21875q-0.515625 0 -0.859375 0.109375q-0.34375 0.109375 -0.40625 0.234375q-0.046875 0.109375 -0.046875 0.375l0 1.140625l-1.640625 -0.109375l0 -2.5625q1.609375 -0.796875 3.171875 -0.796875q1.578125 0 2.34375 0.71875q0.78125 0.703125 0.78125 1.84375q0 0.828125 -0.40625 1.515625q-0.390625 0.671875 -1.046875 1.09375q1.609375 0.515625 1.609375 2.265625q0 1.484375 -0.921875 2.390625q-0.90625 0.890625 -2.6875 0.890625q-0.890625 0 -1.765625 -0.234375q-0.859375 -0.234375 -1.375 -0.5625l0.5625 -1.515625q1.265625 0.703125 2.515625 0.703125q1.734375 0 1.734375 -1.546875q0 -0.8125 -0.53125 -1.1875q-0.515625 -0.375 -1.78125 -0.375l-0.609375 0l0.140625 -1.453125zm6.1176453 -0.78125l0 -1.296875l2.703125 0l0 1.03125q0.890625 -1.265625 2.453125 -1.265625q1.5625 0 2.109375 1.265625q0.890625 -1.265625 2.421875 -1.265625q1.15625 0 1.78125 0.703125q0.625 0.6875 0.625 2.078125l0 4.171875l0.90625 0.046875l0 1.28125l-3.8125 0l0 -1.21875l0.53125 -0.046875q0.25 -0.03125 0.34375 -0.125q0.109375 -0.109375 0.125 -0.390625l0 -3.3125q0 -0.875 -0.203125 -1.296875q-0.203125 -0.421875 -0.9375 -0.421875q-0.734375 0 -1.125 0.453125q-0.390625 0.4375 -0.390625 1.1875l0 3.84375l0.875 0.046875l0 1.28125l-3.765625 0l0 -1.21875l0.515625 -0.046875q0.25 -0.03125 0.359375 -0.125q0.109375 -0.109375 0.109375 -0.40625l0 -3.296875q0 -0.875 -0.203125 -1.296875q-0.203125 -0.421875 -0.953125 -0.421875q-0.734375 0 -1.125 0.46875q-0.375 0.453125 -0.375 1.140625l0 3.875l0.859375 0.046875l0 1.28125l-3.765625 0l0 -1.21875l0.53125 -0.046875q0.234375 -0.03125 0.34375 -0.125q0.109375 -0.109375 0.109375 -0.40625l0.015625 0l0 -4.40625q0 -0.28125 -0.09375 -0.375q-0.078125 -0.109375 -0.296875 -0.125l-0.671875 -0.046875zm17.621674 5.578125q1.75 0 1.75 -2.8125q0 -1.421875 -0.390625 -2.15625q-0.390625 -0.734375 -1.3125 -0.734375q-0.921875 0 -1.359375 0.703125q-0.421875 0.703125 -0.421875 1.921875q0 2.25 0.828125 2.828125q0.359375 0.25 0.90625 0.25zm-3.671875 -2.859375q0 -1.1875 0.34375 -2.046875q0.359375 -0.875 0.953125 -1.34375q1.125 -0.859375 2.515625 -0.859375q0.953125 0 1.609375 0.3125q0.671875 0.3125 1.046875 0.71875q0.375 0.40625 0.640625 1.1875q0.265625 0.765625 0.265625 1.828125q0 2.203125 -1.078125 3.34375q-1.0625 1.125 -2.734375 1.125q-1.671875 0 -2.625 -1.078125q-0.9375 -1.078125 -0.9375 -3.1875zm14.569885 -1.796875l0 -2.578125l1.640625 0l0 2.578125l2.453125 0l0 1.578125l-2.453125 0l0 2.546875l-1.640625 0l0 -2.546875l-2.46875 0l0 -1.578125l2.46875 0zm11.588165 3.890625l0 -6.28125l-1.875 0.953125l-0.703125 -1.234375l2.90625 -1.796875l1.578125 0l0 8.859375l1.65625 0.078125l0 1.359375l-5.5625 0l0 -1.3125l1.53125 -0.09375q0.25 -0.015625 0.359375 -0.125q0.109375 -0.109375 0.109375 -0.40625zm8.185883 0.765625q1.75 0 1.75 -2.8125q0 -1.421875 -0.390625 -2.15625q-0.390625 -0.734375 -1.3125 -0.734375q-0.921875 0 -1.359375 0.703125q-0.421875 0.703125 -0.421875 1.921875q0 2.25 0.828125 2.828125q0.359375 0.25 0.90625 0.25zm-3.671875 -2.859375q0 -1.1875 0.34375 -2.046875q0.359375 -0.875 0.953125 -1.34375q1.125 -0.859375 2.515625 -0.859375q0.953125 0 1.609375 0.3125q0.671875 0.3125 1.046875 0.71875q0.375 0.40625 0.640625 1.1875q0.265625 0.765625 0.265625 1.828125q0 2.203125 -1.078125 3.34375q-1.0625 1.125 -2.734375 1.125q-1.671875 0 -2.625 -1.078125q-0.9375 -1.078125 -0.9375 -3.1875z" fill-rule="nonzero"/><path fill="#000000" fill-opacity="0.0" d="m419.62527 5.7855453l92.031494 0l0 38.771652l-92.031494 0z" fill-rule="evenodd"/><path fill="#666666" d="m462.67587 22.754921l1.125 0l0 2.984375l1.421875 0l0 1.53125l-1.4375 0l0 1.4375l1.328125 0.078125l0 1.359375l-4.703125 0l0 -1.3125l0.984375 -0.078125q0.46875 -0.03125 0.46875 -0.453125l0 -1.046875l-4.09375 0l0 -1.328125l3.0 -6.328125l1.53125 0.75l-2.578125 5.390625l2.28125 0l0 -0.859375l0.671875 -2.125zm7.2322693 6.21875q1.75 0 1.75 -2.8125q0 -1.421875 -0.390625 -2.15625q-0.390625 -0.734375 -1.3125 -0.734375q-0.921875 0 -1.359375 0.703125q-0.421875 0.703125 -0.421875 1.921875q0 2.25 0.828125 2.828125q0.359375 0.25 0.90625 0.25zm-3.671875 -2.859375q0 -1.1875 0.34375 -2.046875q0.359375 -0.875 0.953125 -1.34375q1.125 -0.859375 2.515625 -0.859375q0.953125 0 1.609375 0.3125q0.671875 0.3125 1.046875 0.71875q0.375 0.40625 0.640625 1.1875q0.265625 0.765625 0.265625 1.828125q0 2.203125 -1.078125 3.34375q-1.0625 1.125 -2.734375 1.125q-1.671875 0 -2.625 -1.078125q-0.9375 -1.078125 -0.9375 -3.1875z" fill-rule="nonzero"/><path fill="#000000" fill-opacity="0.0" d="m83.572784 5.7855453l92.031494 0l0 38.771652l-92.031494 0z" fill-rule="evenodd"/><path fill="#666666" d="m126.62339 22.754921l1.125 0l0 2.984375l1.4218826 0l0 1.53125l-1.4375076 0l0 1.4375l1.3281326 0.078125l0 1.359375l-4.7031326 0l0 -1.3125l0.984375 -0.078125q0.46875 -0.03125 0.46875 -0.453125l0 -1.046875l-4.09375 0l0 -1.328125l3.0 -6.328125l1.53125 0.75l-2.578125 5.390625l2.28125 0l0 -0.859375l0.671875 -2.125zm7.232277 6.21875q1.75 0 1.75 -2.8125q0 -1.421875 -0.390625 -2.15625q-0.390625 -0.734375 -1.3125 -0.734375q-0.921875 0 -1.359375 0.703125q-0.421875 0.703125 -0.421875 1.921875q0 2.25 0.828125 2.828125q0.359375 0.25 0.90625 0.25zm-3.671875 -2.859375q0 -1.1875 0.34375 -2.046875q0.359375 -0.875 0.953125 -1.34375q1.125 -0.859375 2.515625 -0.859375q0.953125 0 1.609375 0.3125q0.671875 0.3125 1.046875 0.71875q0.375 0.40625 0.640625 1.1875q0.265625 0.765625 0.265625 1.828125q0 2.203125 -1.078125 3.34375q-1.0625 1.125 -2.734375 1.125q-1.671875 0 -2.625 -1.078125q-0.9375 -1.078125 -0.9375 -3.1875z" fill-rule="nonzero"/><path fill="#000000" fill-opacity="0.0" d="m406.12436 73.45645l92.031494 0l0 38.771652l-92.031494 0z" fill-rule="evenodd"/><path fill="#674ea7" d="m442.3407 89.76958l1.6875 0l0 2.984375l1.421875 0l0 2.1875l-1.4375 0l0 0.796875l1.328125 0.078125l0 2.0l-5.359375 0l0 -1.9375l1.28125 -0.109375q0.171875 -0.015625 0.171875 -0.125l0 -0.71875l-4.09375 0l0 -1.734375l3.171875 -6.6875l2.125 1.03125l-2.5 5.21875l1.4375 0l0 -0.578125l0.765625 -2.40625zm3.3728943 1.28125l0 -1.9375l3.359375 0l0 0.328125q0.390625 -0.5625 2.140625 -0.5625q1.765625 0 2.15625 0.921875q0.65625 -0.921875 2.359375 -0.921875q1.296875 0 2.015625 0.796875q0.71875 0.796875 0.71875 2.3125l0 3.859375l0.90625 0.046875l0 1.921875l-4.46875 0l0 -1.84375l0.828125 -0.078125q0.125 -0.015625 0.140625 -0.03125q0.015625 -0.015625 0.03125 -0.171875l0 -3.296875q0 -0.796875 -0.140625 -1.09375q-0.140625 -0.296875 -0.703125 -0.296875q-0.546875 0 -0.859375 0.34375q-0.296875 0.34375 -0.296875 0.96875l0 3.53125l0.875 0.046875l0 1.921875l-4.421875 0l0 -1.84375l0.8125 -0.078125q0.140625 -0.015625 0.15625 -0.03125q0.015625 -0.015625 0.015625 -0.171875l0 -3.296875q0 -0.796875 -0.140625 -1.09375q-0.140625 -0.296875 -0.703125 -0.296875q-0.5625 0 -0.859375 0.359375q-0.296875 0.359375 -0.296875 0.921875l0 3.5625l0.859375 0.046875l0 1.921875l-4.421875 0l0 -1.84375l0.828125 -0.078125q0.125 -0.015625 0.140625 -0.03125q0.015625 -0.015625 0.015625 -0.5l0.328125 0.3125l-0.3125 -4.390625q0 -0.15625 0 -0.15625q0 -0.015625 -0.078125 -0.015625l-0.984375 -0.0625zm17.949799 4.9375q1.421875 0 1.421875 -2.484375q0 -1.34375 -0.328125 -1.953125q-0.328125 -0.609375 -1.0625 -0.609375q-0.71875 0 -1.078125 0.59375q-0.359375 0.578125 -0.359375 1.703125q0 2.078125 0.6875 2.5625q0.28125 0.1875 0.71875 0.1875zm-4.0 -2.53125q0 -1.25 0.375 -2.1875q0.390625 -0.9375 1.046875 -1.46875q1.21875 -0.921875 2.71875 -0.921875q1.03125 0 1.75 0.34375q0.734375 0.34375 1.140625 0.796875q0.421875 0.453125 0.703125 1.28125q0.296875 0.828125 0.296875 1.953125q0 2.328125 -1.171875 3.5625q-1.15625 1.234375 -2.984375 1.234375q-1.8125 0 -2.84375 -1.171875q-1.03125 -1.1875 -1.03125 -3.421875z" fill-rule="nonzero"/><path fill="#000000" fill-opacity="0.0" d="m245.5847 73.45645l92.03148 0l0 38.771652l-92.03148 0z" fill-rule="evenodd"/><path fill="#674ea7" d="m263.6395 91.19145l1.84375 0q0.734375 -0.46875 0.734375 -1.390625q0 -0.890625 -1.0625 -0.890625q-0.46875 0 -0.71875 0.078125q-0.25 0.078125 -0.265625 0.109375q0 0.015625 0 0.203125l0 1.484375l-2.296875 -0.140625l0 -3.078125q1.859375 -0.921875 3.53125 -0.921875q1.671875 0 2.546875 0.8125q0.875 0.796875 0.875 2.078125q0 0.921875 -0.4375 1.671875q-0.4375 0.75 -0.578125 0.84375q1.171875 0.375 1.171875 2.359375q0 1.625 -1.015625 2.625q-1.0 0.984375 -2.921875 0.984375q-0.9375 0 -1.859375 -0.25q-0.90625 -0.25 -1.6875 -0.734375l0.796875 -2.125q1.515625 0.84375 2.6875 0.84375q1.40625 0 1.40625 -1.21875q0 -0.640625 -0.421875 -0.9375q-0.40625 -0.296875 -1.5625 -0.296875l-0.96875 0l0.203125 -2.109375zm10.180145 4.796875q1.421875 0 1.421875 -2.484375q0 -1.34375 -0.328125 -1.953125q-0.328125 -0.609375 -1.0625 -0.609375q-0.71875 0 -1.078125 0.59375q-0.359375 0.578125 -0.359375 1.703125q0 2.078125 0.6875 2.5625q0.28125 0.1875 0.71875 0.1875zm-4.0 -2.53125q0 -1.25 0.375 -2.1875q0.390625 -0.9375 1.046875 -1.46875q1.21875 -0.921875 2.71875 -0.921875q1.03125 0 1.75 0.34375q0.734375 0.34375 1.140625 0.796875q0.421875 0.453125 0.703125 1.28125q0.296875 0.828125 0.296875 1.953125q0 2.328125 -1.171875 3.5625q-1.15625 1.234375 -2.984375 1.234375q-1.8125 0 -2.84375 -1.171875q-1.03125 -1.1875 -1.03125 -3.421875zm14.569916 -2.125l0 -2.578125l2.296875 0l0 2.578125l2.453125 0l0 2.234375l-2.453125 0l0 2.546875l-2.296875 0l0 -2.546875l-2.46875 0l0 -2.234375l2.46875 0zm11.588135 4.21875l0 -5.75l-1.671875 0.859375l-1.015625 -1.78125l3.25 -2.015625l2.0 0l0 8.875l1.65625 0.078125l0 2.0l-6.21875 0l0 -1.953125l1.84375 -0.109375q0.125 0 0.140625 -0.015625q0.015625 -0.03125 0.015625 -0.1875zm4.4202576 -4.5l0 -1.9375l3.359375 0l0 0.328125q0.390625 -0.5625 2.140625 -0.5625q1.765625 0 2.15625 0.921875q0.65625 -0.921875 2.359375 -0.921875q1.296875 0 2.015625 0.796875q0.71875 0.796875 0.71875 2.3125l0 3.859375l0.90625 0.046875l0 1.921875l-4.46875 0l0 -1.84375l0.828125 -0.078125q0.125 -0.015625 0.140625 -0.03125q0.015625 -0.015625 0.03125 -0.171875l0 -3.296875q0 -0.796875 -0.140625 -1.09375q-0.140625 -0.296875 -0.703125 -0.296875q-0.546875 0 -0.859375 0.34375q-0.296875 0.34375 -0.296875 0.96875l0 3.53125l0.875 0.046875l0 1.921875l-4.421875 0l0 -1.84375l0.8125 -0.078125q0.140625 -0.015625 0.15625 -0.03125q0.015625 -0.015625 0.015625 -0.171875l0 -3.296875q0 -0.796875 -0.140625 -1.09375q-0.140625 -0.296875 -0.703125 -0.296875q-0.5625 0 -0.859375 0.359375q-0.296875 0.359375 -0.296875 0.921875l0 3.5625l0.859375 0.046875l0 1.921875l-4.421875 0l0 -1.84375l0.828125 -0.078125q0.125 -0.015625 0.140625 -0.03125q0.015625 -0.015625 0.015625 -0.5l0.328125 0.3125l-0.3125 -4.390625q0 -0.15625 0 -0.15625q0 -0.015625 -0.078125 -0.015625l-0.984375 -0.0625zm17.949799 4.9375q1.421875 0 1.421875 -2.484375q0 -1.34375 -0.328125 -1.953125q-0.328125 -0.609375 -1.0625 -0.609375q-0.71875 0 -1.078125 0.59375q-0.359375 0.578125 -0.359375 1.703125q0 2.078125 0.6875 2.5625q0.28125 0.1875 0.71875 0.1875zm-4.0 -2.53125q0 -1.25 0.375 -2.1875q0.390625 -0.9375 1.046875 -1.46875q1.21875 -0.921875 2.71875 -0.921875q1.03125 0 1.75 0.34375q0.734375 0.34375 1.140625 0.796875q0.421875 0.453125 0.703125 1.28125q0.296875 0.828125 0.296875 1.953125q0 2.328125 -1.171875 3.5625q-1.15625 1.234375 -2.984375 1.234375q-1.8125 0 -2.84375 -1.171875q-1.03125 -1.1875 -1.03125 -3.421875z" fill-rule="nonzero"/><path fill="#000000" fill-opacity="0.0" d="m76.06683 73.45645l92.031494 0l0 38.771652l-92.031494 0z" fill-rule="evenodd"/><path fill="#674ea7" d="m112.28317 89.76958l1.6875 0l0 2.984375l1.421875 0l0 2.1875l-1.4375 0l0 0.796875l1.328125 0.078125l0 2.0l-5.359375 0l0 -1.9375l1.28125 -0.109375q0.171875 -0.015625 0.171875 -0.125l0 -0.71875l-4.09375 0l0 -1.734375l3.171875 -6.6875l2.125 1.03125l-2.5 5.21875l1.4375 0l0 -0.578125l0.765625 -2.40625zm3.3728943 1.28125l0 -1.9375l3.359375 0l0 0.328125q0.390625 -0.5625 2.140625 -0.5625q1.765625 0 2.15625 0.921875q0.65625 -0.921875 2.359375 -0.921875q1.296875 0 2.015625 0.796875q0.71875 0.796875 0.71875 2.3125l0 3.859375l0.90625 0.046875l0 1.921875l-4.46875 0l0 -1.84375l0.828125 -0.078125q0.125 -0.015625 0.140625 -0.03125q0.015625 -0.015625 0.03125 -0.171875l0 -3.296875q0 -0.796875 -0.140625 -1.09375q-0.140625 -0.296875 -0.703125 -0.296875q-0.546875 0 -0.859375 0.34375q-0.296875 0.34375 -0.296875 0.96875l0 3.53125l0.875 0.046875l0 1.921875l-4.421875 0l0 -1.84375l0.8125 -0.078125q0.140625 -0.015625 0.15625 -0.03125q0.015625 -0.015625 0.015625 -0.171875l0 -3.296875q0 -0.796875 -0.140625 -1.09375q-0.140625 -0.296875 -0.703125 -0.296875q-0.5625 0 -0.859375 0.359375q-0.296875 0.359375 -0.296875 0.921875l0 3.5625l0.859375 0.046875l0 1.921875l-4.421875 0l0 -1.84375l0.828125 -0.078125q0.125 -0.015625 0.140625 -0.03125q0.015625 -0.015625 0.015625 -0.5l0.328125 0.3125l-0.3125 -4.390625q0 -0.15625 0 -0.15625q0 -0.015625 -0.078125 -0.015625l-0.984375 -0.0625zm17.949783 4.9375q1.421875 0 1.421875 -2.484375q0 -1.34375 -0.328125 -1.953125q-0.328125 -0.609375 -1.0625 -0.609375q-0.71875 0 -1.078125 0.59375q-0.359375 0.578125 -0.359375 1.703125q0 2.078125 0.6875 2.5625q0.28125 0.1875 0.71875 0.1875zm-4.0 -2.53125q0 -1.25 0.375 -2.1875q0.390625 -0.9375 1.046875 -1.46875q1.21875 -0.921875 2.71875 -0.921875q1.03125 0 1.75 0.34375q0.734375 0.34375 1.140625 0.796875q0.421875 0.453125 0.703125 1.28125q0.296875 0.828125 0.296875 1.953125q0 2.328125 -1.171875 3.5625q-1.15625 1.234375 -2.984375 1.234375q-1.8125 0 -2.84375 -1.171875q-1.03125 -1.1875 -1.03125 -3.421875z" fill-rule="nonzero"/><path fill="#000000" fill-opacity="0.0" d="m90.08924 73.396324l83.9685 0" fill-rule="evenodd"/><path stroke="#674ea7" stroke-width="3.0" stroke-linejoin="round" stroke-linecap="butt" d="m90.08924 73.396324l65.9685 0" fill-rule="evenodd"/><path fill="#674ea7" stroke="#674ea7" stroke-width="3.0" stroke-linecap="butt" d="m156.05774 78.351524l13.614304 -4.9552l-13.614304 -4.9551926z" fill-rule="evenodd"/><path fill="#000000" fill-opacity="0.0" d="m255.6343 73.396324l83.96852 0" fill-rule="evenodd"/><path stroke="#674ea7" stroke-width="3.0" stroke-linejoin="round" stroke-linecap="butt" d="m255.6343 73.396324l65.96849 0" fill-rule="evenodd"/><path fill="#674ea7" stroke="#674ea7" stroke-width="3.0" stroke-linecap="butt" d="m321.60278 78.351524l13.614288 -4.9552l-13.614288 -4.9551926z" fill-rule="evenodd"/><path fill="#000000" fill-opacity="0.0" d="m186.00584 44.55528l-107.874016 0" fill-rule="evenodd"/><path stroke="#666666" stroke-width="3.0" stroke-linejoin="round" stroke-linecap="butt" d="m186.00584 44.55528l-89.874016 0" fill-rule="evenodd"/><path fill="#666666" stroke="#666666" stroke-width="3.0" stroke-linecap="butt" d="m96.13183 39.60008l-13.614296 4.9552l13.614296 4.9551964z" fill-rule="evenodd"/><path fill="#000000" fill-opacity="0.0" d="m421.17935 73.396324l83.968506 0" fill-rule="evenodd"/><path stroke="#674ea7" stroke-width="3.0" stroke-linejoin="round" stroke-linecap="butt" d="m421.17935 73.396324l65.968506 0" fill-rule="evenodd"/><path fill="#674ea7" stroke="#674ea7" stroke-width="3.0" stroke-linecap="butt" d="m487.14786 78.351524l13.614288 -4.9552l-13.614288 -4.9551926z" fill-rule="evenodd"/><path fill="#000000" fill-opacity="0.0" d="m351.5509 44.55528l-107.87402 0" fill-rule="evenodd"/><path stroke="#666666" stroke-width="3.0" stroke-linejoin="round" stroke-linecap="butt" d="m351.5509 44.55528l-89.87402 0" fill-rule="evenodd"/><path fill="#666666" stroke="#666666" stroke-width="3.0" stroke-linecap="butt" d="m261.67688 39.60008l-13.614288 4.9552l13.614288 4.9551964z" fill-rule="evenodd"/><path fill="#000000" fill-opacity="0.0" d="m517.09595 44.55528l-107.87399 0" fill-rule="evenodd"/><path stroke="#666666" stroke-width="3.0" stroke-linejoin="round" stroke-linecap="butt" d="m517.09595 44.55528l-89.87399 0" fill-rule="evenodd"/><path fill="#666666" stroke="#666666" stroke-width="3.0" stroke-linecap="butt" d="m427.22195 39.60008l-13.614288 4.9552l13.614288 4.9551964z" fill-rule="evenodd"/><path fill="#000000" fill-opacity="0.0" d="m171.2235 135.66743l92.03151 0l0 38.771652l-92.03151 0z" fill-rule="evenodd"/><path fill="#666666" d="m187.11267 160.02744l0 -1.234375l3.1875 -4.015625q0.5 -0.640625 0.65625 -0.84375q0.15625 -0.21875 0.3125 -0.609375q0.15625 -0.40625 0.15625 -0.953125q0 -0.546875 -0.375 -0.890625q-0.375 -0.359375 -0.96875 -0.359375q-0.578125 0 -0.875 0.09375q-0.296875 0.09375 -0.359375 0.21875q-0.046875 0.109375 -0.046875 0.375l0 1.125l-1.640625 -0.109375l0 -2.5625q1.515625 -0.75 3.09375 -0.75q1.578125 0 2.375 0.78125q0.8125 0.78125 0.8125 2.125q0 1.34375 -1.359375 2.984375l-2.578125 3.046875l4.0 0l0 1.578125l-6.390625 0zm7.708023 -6.75l0 -1.296875l2.703125 0l0 1.03125q0.890625 -1.265625 2.453125 -1.265625q1.5625 0 2.109375 1.265625q0.890625 -1.265625 2.421875 -1.265625q1.15625 0 1.78125 0.703125q0.625 0.6875 0.625 2.078125l0 4.171875l0.90625 0.046875l0 1.28125l-3.8125 0l0 -1.21875l0.53125 -0.046875q0.25 -0.03125 0.34375 -0.125q0.109375 -0.109375 0.125 -0.390625l0 -3.3125q0 -0.875 -0.203125 -1.296875q-0.203125 -0.421875 -0.9375 -0.421875q-0.734375 0 -1.125 0.453125q-0.390625 0.4375 -0.390625 1.1875l0 3.84375l0.875 0.046875l0 1.28125l-3.765625 0l0 -1.21875l0.515625 -0.046875q0.25 -0.03125 0.359375 -0.125q0.109375 -0.109375 0.109375 -0.40625l0 -3.296875q0 -0.875 -0.203125 -1.296875q-0.203125 -0.421875 -0.953125 -0.421875q-0.734375 0 -1.125 0.46875q-0.375 0.453125 -0.375 1.140625l0 3.875l0.859375 0.046875l0 1.28125l-3.765625 0l0 -1.21875l0.53125 -0.046875q0.234375 -0.03125 0.34375 -0.125q0.109375 -0.109375 0.109375 -0.40625l0.015625 0l0 -4.40625q0 -0.28125 -0.09375 -0.375q-0.078125 -0.109375 -0.296875 -0.125l-0.671875 -0.046875zm17.621658 5.578125q1.75 0 1.75 -2.8125q0 -1.421875 -0.390625 -2.15625q-0.390625 -0.734375 -1.3125 -0.734375q-0.921875 0 -1.359375 0.703125q-0.421875 0.703125 -0.421875 1.921875q0 2.25 0.828125 2.828125q0.359375 0.25 0.90625 0.25zm-3.671875 -2.859375q0 -1.1875 0.34375 -2.046875q0.359375 -0.875 0.953125 -1.34375q1.125 -0.859375 2.515625 -0.859375q0.953125 0 1.609375 0.3125q0.671875 0.3125 1.046875 0.71875q0.375 0.40625 0.640625 1.1875q0.265625 0.765625 0.265625 1.828125q0 2.203125 -1.078125 3.34375q-1.0625 1.125 -2.734375 1.125q-1.671875 0 -2.625 -1.078125q-0.9375 -1.078125 -0.9375 -3.1875zm14.5699005 -1.796875l0 -2.578125l1.640625 0l0 2.578125l2.453125 0l0 1.578125l-2.453125 0l0 2.546875l-1.640625 0l0 -2.546875l-2.46875 0l0 -1.578125l2.46875 0zm9.2444 5.828125l0 -1.234375l3.1875 -4.015625q0.5 -0.640625 0.65625 -0.84375q0.15625 -0.21875 0.3125 -0.609375q0.15625 -0.40625 0.15625 -0.953125q0 -0.546875 -0.375 -0.890625q-0.375 -0.359375 -0.96875 -0.359375q-0.578125 0 -0.875 0.09375q-0.296875 0.09375 -0.359375 0.21875q-0.046875 0.109375 -0.046875 0.375l0 1.125l-1.640625 -0.109375l0 -2.5625q1.515625 -0.75 3.09375 -0.75q1.578125 0 2.375 0.78125q0.8125 0.78125 0.8125 2.125q0 1.34375 -1.359375 2.984375l-2.578125 3.046875l4.0 0l0 1.578125l-6.390625 0zm11.473648 -1.171875q1.75 0 1.75 -2.8125q0 -1.421875 -0.390625 -2.15625q-0.390625 -0.734375 -1.3125 -0.734375q-0.921875 0 -1.359375 0.703125q-0.421875 0.703125 -0.421875 1.921875q0 2.25 0.828125 2.828125q0.359375 0.25 0.90625 0.25zm-3.671875 -2.859375q0 -1.1875 0.34375 -2.046875q0.359375 -0.875 0.953125 -1.34375q1.125 -0.859375 2.515625 -0.859375q0.953125 0 1.609375 0.3125q0.671875 0.3125 1.046875 0.71875q0.375 0.40625 0.640625 1.1875q0.265625 0.765625 0.265625 1.828125q0 2.203125 -1.078125 3.34375q-1.0625 1.125 -2.734375 1.125q-1.671875 0 -2.625 -1.078125q-0.9375 -1.078125 -0.9375 -3.1875z" fill-rule="nonzero"/><path fill="#ffffff" d="m174.0595 73.396324l0 0c0 -22.52626 18.261139 -40.7874 40.7874 -40.7874l0 0c10.81749 0 21.191925 4.29723 28.84105 11.946354c7.649124 7.6491203 11.94635 18.023556 11.94635 28.841045l0 0c0 22.52626 -18.261139 40.7874 -40.7874 40.7874l0 0c-22.52626 0 -40.7874 -18.261139 -40.7874 -40.7874z" fill-rule="evenodd"/><path stroke="#000000" stroke-width="3.0" stroke-linejoin="round" stroke-linecap="butt" d="m174.0595 73.396324l0 0c0 -22.52626 18.261139 -40.7874 40.7874 -40.7874l0 0c10.81749 0 21.191925 4.29723 28.84105 11.946354c7.649124 7.6491203 11.94635 18.023556 11.94635 28.841045l0 0c0 22.52626 -18.261139 40.7874 -40.7874 40.7874l0 0c-22.52626 0 -40.7874 -18.261139 -40.7874 -40.7874z" fill-rule="evenodd"/><path fill="#000000" d="m198.1519 80.31632l0 -1.4375l3.71875 -4.6875q0.578125 -0.734375 0.765625 -0.984375q0.1875 -0.265625 0.359375 -0.71875q0.1875 -0.453125 0.1875 -1.09375q0 -0.65625 -0.4375 -1.0625q-0.4375 -0.40625 -1.125 -0.40625q-0.6875 0 -1.03125 0.109375q-0.34375 0.109375 -0.40625 0.25q-0.0625 0.140625 -0.0625 0.4375l0 1.328125l-1.90625 -0.125l0 -2.984375q1.75 -0.875 3.59375 -0.875q1.859375 0 2.78125 0.90625q0.9375 0.890625 0.9375 2.46875q0 1.5625 -1.578125 3.484375l-3.015625 3.546875l4.671875 0l0 1.84375l-7.453125 0zm8.976913 -7.875l0 -1.515625l3.15625 0l0 1.21875q1.046875 -1.484375 2.859375 -1.484375q1.828125 0 2.453125 1.484375q1.046875 -1.484375 2.84375 -1.484375q1.34375 0 2.0625 0.8125q0.734375 0.796875 0.734375 2.421875l0 4.875l1.0625 0.046875l0 1.5l-4.4375 0l0 -1.421875l0.609375 -0.046875q0.28125 -0.046875 0.40625 -0.15625q0.125 -0.125 0.140625 -0.453125l0 -3.859375q0 -1.015625 -0.234375 -1.515625q-0.234375 -0.5 -1.09375 -0.5q-0.859375 0 -1.3125 0.53125q-0.453125 0.515625 -0.453125 1.390625l0 4.484375l1.015625 0.046875l0 1.5l-4.40625 0l0 -1.421875l0.625 -0.046875q0.28125 -0.046875 0.40625 -0.15625q0.140625 -0.125 0.140625 -0.46875l0 -3.84375q0 -1.015625 -0.234375 -1.515625q-0.234375 -0.5 -1.109375 -0.5q-0.859375 0 -1.3125 0.546875q-0.453125 0.546875 -0.453125 1.34375l0 4.515625l1.015625 0.046875l0 1.5l-4.40625 0l0 -1.421875l0.609375 -0.046875q0.28125 -0.046875 0.40625 -0.15625q0.140625 -0.125 0.140625 -0.46875l0.015625 0l0 -5.140625q0 -0.328125 -0.109375 -0.4375q-0.09375 -0.125 -0.359375 -0.140625l-0.78125 -0.0625zm20.562561 6.515625q2.03125 0 2.03125 -3.28125q0 -1.671875 -0.453125 -2.515625q-0.453125 -0.859375 -1.53125 -0.859375q-1.078125 0 -1.578125 0.828125q-0.5 0.8125 -0.5 2.21875q0 2.640625 0.96875 3.3125q0.421875 0.296875 1.0625 0.296875zm-4.296875 -3.34375q0 -1.375 0.40625 -2.390625q0.421875 -1.015625 1.109375 -1.5625q1.328125 -1.0 2.9375 -1.0q1.109375 0 1.875 0.359375q0.78125 0.359375 1.21875 0.84375q0.4375 0.46875 0.75 1.375q0.3125 0.90625 0.3125 2.140625q0 2.5625 -1.25 3.890625q-1.25 1.328125 -3.203125 1.328125q-1.953125 0 -3.0625 -1.25q-1.09375 -1.265625 -1.09375 -3.734375z" fill-rule="nonzero"/><path fill="#ffffff" d="m339.60455 73.396324l0 0c0 -22.52626 18.261139 -40.7874 40.787384 -40.7874l0 0c10.817505 0 21.191956 4.29723 28.841064 11.946354c7.649109 7.6491203 11.94635 18.023556 11.94635 28.841045l0 0c0 22.52626 -18.261139 40.7874 -40.787415 40.7874l0 0c-22.526245 0 -40.787384 -18.261139 -40.787384 -40.7874z" fill-rule="evenodd"/><path stroke="#000000" stroke-width="3.0" stroke-linejoin="round" stroke-linecap="butt" d="m339.60455 73.396324l0 0c0 -22.52626 18.261139 -40.7874 40.787384 -40.7874l0 0c10.817505 0 21.191956 4.29723 28.841064 11.946354c7.649109 7.6491203 11.94635 18.023556 11.94635 28.841045l0 0c0 22.52626 -18.261139 40.7874 -40.787415 40.7874l0 0c-22.526245 0 -40.787384 -18.261139 -40.787384 -40.7874z" fill-rule="evenodd"/><path fill="#000000" d="m368.85742 71.69132l1.3125 0l0 3.5l1.65625 0l0 1.765625l-1.671875 0l0 1.6875l1.546875 0.09375l0 1.578125l-5.484375 0l0 -1.53125l1.15625 -0.09375q0.53125 -0.03125 0.53125 -0.515625l0 -1.234375l-4.765625 0l0 -1.546875l3.5 -7.375l1.78125 0.875l-3.015625 6.296875l2.671875 0l0 -1.015625l0.78125 -2.484375zm4.031006 0.75l0 -1.515625l3.15625 0l0 1.21875q1.046875 -1.484375 2.859375 -1.484375q1.828125 0 2.453125 1.484375q1.046875 -1.484375 2.84375 -1.484375q1.34375 0 2.0625 0.8125q0.734375 0.796875 0.734375 2.421875l0 4.875l1.0625 0.046875l0 1.5l-4.4375 0l0 -1.421875l0.609375 -0.046875q0.28125 -0.046875 0.40625 -0.15625q0.125 -0.125 0.140625 -0.453125l0 -3.859375q0 -1.015625 -0.234375 -1.515625q-0.234375 -0.5 -1.09375 -0.5q-0.859375 0 -1.3125 0.53125q-0.453125 0.515625 -0.453125 1.390625l0 4.484375l1.015625 0.046875l0 1.5l-4.40625 0l0 -1.421875l0.625 -0.046875q0.28125 -0.046875 0.40625 -0.15625q0.140625 -0.125 0.140625 -0.46875l0 -3.84375q0 -1.015625 -0.234375 -1.515625q-0.234375 -0.5 -1.109375 -0.5q-0.859375 0 -1.3125 0.546875q-0.453125 0.546875 -0.453125 1.34375l0 4.515625l1.015625 0.046875l0 1.5l-4.40625 0l0 -1.421875l0.609375 -0.046875q0.28125 -0.046875 0.40625 -0.15625q0.140625 -0.125 0.140625 -0.46875l0.015625 0l0 -5.140625q0 -0.328125 -0.109375 -0.4375q-0.09375 -0.125 -0.359375 -0.140625l-0.78125 -0.0625zm20.562561 6.515625q2.03125 0 2.03125 -3.28125q0 -1.671875 -0.453125 -2.515625q-0.453125 -0.859375 -1.53125 -0.859375q-1.078125 0 -1.578125 0.828125q-0.5 0.8125 -0.5 2.21875q0 2.640625 0.96875 3.3125q0.421875 0.296875 1.0625 0.296875zm-4.296875 -3.34375q0 -1.375 0.40625 -2.390625q0.421875 -1.015625 1.109375 -1.5625q1.328125 -1.0 2.9375 -1.0q1.109375 0 1.875 0.359375q0.78125 0.359375 1.21875 0.84375q0.4375 0.46875 0.75 1.375q0.3125 0.90625 0.3125 2.140625q0 2.5625 -1.25 3.890625q-1.25 1.328125 -3.203125 1.328125q-1.953125 0 -3.0625 -1.25q-1.09375 -1.265625 -1.09375 -3.734375z" fill-rule="nonzero"/><path fill="#ffffff" d="m505.1496 73.396324l0 0c0 -22.52626 18.26117 -40.7874 40.787415 -40.7874l0 0c10.817505 0 21.191895 4.29723 28.841064 11.946354c7.649109 7.6491203 11.94635 18.023556 11.94635 28.841045l0 0c0 22.52626 -18.26117 40.7874 -40.787415 40.7874l0 0c-22.526245 0 -40.787415 -18.261139 -40.787415 -40.7874z" fill-rule="evenodd"/><path stroke="#000000" stroke-width="3.0" stroke-linejoin="round" stroke-linecap="butt" d="m505.1496 73.396324l0 0c0 -22.52626 18.26117 -40.7874 40.787415 -40.7874l0 0c10.817505 0 21.191895 4.29723 28.841064 11.946354c7.649109 7.6491203 11.94635 18.023556 11.94635 28.841045l0 0c0 22.52626 -18.26117 40.7874 -40.787415 40.7874l0 0c-22.526245 0 -40.787415 -18.261139 -40.787415 -40.7874z" fill-rule="evenodd"/><path fill="#000000" d="m533.0212 68.06632q4.234375 0 4.234375 6.125q0 3.265625 -1.109375 4.796875q-1.09375 1.515625 -3.265625 1.515625q-2.15625 0 -3.21875 -1.5q-1.0625 -1.5 -1.0625 -4.671875q0 -3.171875 1.171875 -4.71875q1.171875 -1.546875 3.25 -1.546875zm-1.640625 9.6875q0.53125 0.953125 1.53125 0.953125q1.015625 0 1.5625 -0.984375q0.5625 -0.984375 0.5625 -3.4375q0 -2.453125 -0.53125 -3.421875q-0.53125 -0.96875 -1.5625 -0.96875q-1.03125 0 -1.5625 1.03125q-0.53125 1.03125 -0.53125 3.453125q0 2.40625 0.53125 3.375zm7.043579 -5.3125l0 -1.515625l3.15625 0l0 1.21875q1.046875 -1.484375 2.859375 -1.484375q1.828125 0 2.453125 1.484375q1.046875 -1.484375 2.84375 -1.484375q1.34375 0 2.0625 0.8125q0.734375 0.796875 0.734375 2.421875l0 4.875l1.0625 0.046875l0 1.5l-4.4375 0l0 -1.421875l0.609375 -0.046875q0.28125 -0.046875 0.40625 -0.15625q0.125 -0.125 0.140625 -0.453125l0 -3.859375q0 -1.015625 -0.234375 -1.515625q-0.234375 -0.5 -1.09375 -0.5q-0.859375 0 -1.3125 0.53125q-0.453125 0.515625 -0.453125 1.390625l0 4.484375l1.015625 0.046875l0 1.5l-4.40625 0l0 -1.421875l0.625 -0.046875q0.28125 -0.046875 0.40625 -0.15625q0.140625 -0.125 0.140625 -0.46875l0 -3.84375q0 -1.015625 -0.234375 -1.515625q-0.234375 -0.5 -1.109375 -0.5q-0.859375 0 -1.3125 0.546875q-0.453125 0.546875 -0.453125 1.34375l0 4.515625l1.015625 0.046875l0 1.5l-4.40625 0l0 -1.421875l0.609375 -0.046875q0.28125 -0.046875 0.40625 -0.15625q0.140625 -0.125 0.140625 -0.46875l0.015625 0l0 -5.140625q0 -0.328125 -0.109375 -0.4375q-0.09375 -0.125 -0.359375 -0.140625l-0.78125 -0.0625zm20.562561 6.515625q2.03125 0 2.03125 -3.28125q0 -1.671875 -0.453125 -2.515625q-0.453125 -0.859375 -1.53125 -0.859375q-1.078125 0 -1.578125 0.828125q-0.5 0.8125 -0.5 2.21875q0 2.640625 0.96875 3.3125q0.421875 0.296875 1.0625 0.296875zm-4.296875 -3.34375q0 -1.375 0.40625 -2.390625q0.421875 -1.015625 1.109375 -1.5625q1.328125 -1.0 2.9375 -1.0q1.109375 0 1.875 0.359375q0.78125 0.359375 1.21875 0.84375q0.4375 0.46875 0.75 1.375q0.3125 0.90625 0.3125 2.140625q0 2.5625 -1.25 3.890625q-1.25 1.328125 -3.203125 1.328125q-1.953125 0 -3.0625 -1.25q-1.09375 -1.265625 -1.09375 -3.734375z" fill-rule="nonzero"/><path fill="#ffffff" d="m8.514436 73.396324l0 0c0 -22.52626 18.261143 -40.7874 40.787403 -40.7874l0 0c10.81749 0 21.191929 4.29723 28.841045 11.946354c7.649124 7.6491203 11.946358 18.023556 11.946358 28.841045l0 0c0 22.52626 -18.261147 40.7874 -40.787403 40.7874l0 0c-22.52626 0 -40.787403 -18.261139 -40.787403 -40.7874z" fill-rule="evenodd"/><path stroke="#000000" stroke-width="3.0" stroke-linejoin="round" stroke-linecap="butt" d="m8.514436 73.396324l0 0c0 -22.52626 18.261143 -40.7874 40.787403 -40.7874l0 0c10.81749 0 21.191929 4.29723 28.841045 11.946354c7.649124 7.6491203 11.946358 18.023556 11.946358 28.841045l0 0c0 22.52626 -18.261147 40.7874 -40.787403 40.7874l0 0c-22.52626 0 -40.787403 -18.261139 -40.787403 -40.7874z" fill-rule="evenodd"/><path fill="#000000" d="m38.69221 67.8007l0.421875 1.671875q-3.984375 0.515625 -4.453125 3.953125q1.171875 -0.765625 2.609375 -0.765625q1.453125 0 2.3125 0.984375q0.859375 0.96875 0.859375 2.75q0 1.78125 -1.0625 2.953125q-1.046875 1.171875 -3.078125 1.171875q-2.015625 0 -3.0 -1.453125q-0.984375 -1.453125 -0.984375 -3.90625q0 -6.65625 6.375 -7.359375zm-0.4375 8.578125q0 -2.125 -1.65625 -2.125q-0.484375 0 -1.109375 0.234375q-0.625 0.21875 -0.96875 0.5q0 0.171875 0 0.359375q0 1.484375 0.421875 2.46875q0.4375 0.984375 1.5 0.984375q0.8125 0 1.3125 -0.640625q0.5 -0.640625 0.5 -1.78125zm3.5249329 -3.9375l0 -1.515625l3.15625 0l0 1.21875q1.046875 -1.484375 2.859375 -1.484375q1.828125 0 2.453125 1.484375q1.046875 -1.484375 2.84375 -1.484375q1.34375 0 2.0625 0.8125q0.734375 0.796875 0.734375 2.421875l0 4.875l1.0625 0.046875l0 1.5l-4.4375 0l0 -1.421875l0.609375 -0.046875q0.28125 -0.046875 0.40625 -0.15625q0.125 -0.125 0.140625 -0.453125l0 -3.859375q0 -1.015625 -0.234375 -1.515625q-0.234375 -0.5 -1.09375 -0.5q-0.859375 0 -1.3125 0.53125q-0.453125 0.515625 -0.453125 1.390625l0 4.484375l1.015625 0.046875l0 1.5l-4.40625 0l0 -1.421875l0.625 -0.046875q0.28125 -0.046875 0.40625 -0.15625q0.140625 -0.125 0.140625 -0.46875l0 -3.84375q0 -1.015625 -0.234375 -1.515625q-0.234375 -0.5 -1.109375 -0.5q-0.859375 0 -1.3125 0.546875q-0.453125 0.546875 -0.453125 1.34375l0 4.515625l1.015625 0.046875l0 1.5l-4.40625 0l0 -1.421875l0.609375 -0.046875q0.28125 -0.046875 0.40625 -0.15625q0.140625 -0.125 0.140625 -0.46875l0.015625 0l0 -5.140625q0 -0.328125 -0.109375 -0.4375q-0.09375 -0.125 -0.359375 -0.140625l-0.78125 -0.0625zm20.562561 6.515625q2.0312538 0 2.0312538 -3.28125q0 -1.671875 -0.4531288 -2.515625q-0.453125 -0.859375 -1.53125 -0.859375q-1.078125 0 -1.578125 0.828125q-0.5 0.8125 -0.5 2.21875q0 2.640625 0.96875 3.3125q0.421875 0.296875 1.0625 0.296875zm-4.296875 -3.34375q0 -1.375 0.40625 -2.390625q0.421875 -1.015625 1.109375 -1.5625q1.328125 -1.0 2.9375 -1.0q1.109375 0 1.8750038 0.359375q0.78125 0.359375 1.21875 0.84375q0.4375 0.46875 0.75 1.375q0.3125 0.90625 0.3125 2.140625q0 2.5625 -1.25 3.890625q-1.25 1.328125 -3.2031288 1.328125q-1.953125 0 -3.0625 -1.25q-1.09375 -1.265625 -1.09375 -3.734375z" fill-rule="nonzero"/><path fill="#000000" fill-opacity="0.0" d="m409.233 102.23737c0 18.473175 -14.417328 36.938484 -28.834656 36.946358c-14.417328 0.007873535 -28.834625 -18.44168 -28.834625 -36.88336" fill-rule="evenodd"/><path stroke="#666666" stroke-width="3.0" stroke-linejoin="round" stroke-linecap="butt" d="m409.23297 102.237366c0 18.473183 -14.417328 36.93849 -28.834625 36.946365c-7.208679 0.0039367676 -14.417328 -4.606491 -19.823822 -11.523102c-1.3516235 -1.7291565 -2.5906067 -3.6024475 -3.6888123 -5.583809c-0.27453613 -0.49534607 -0.5402832 -0.9974365 -0.79681396 -1.505722c-0.06411743 -0.12706757 -0.12765503 -0.25452423 -0.19064331 -0.38237l-0.18191528 -0.37393188" fill-rule="evenodd"/><path fill="#666666" stroke="#666666" stroke-width="3.0" stroke-linecap="butt" d="m360.53787 118.67162l-7.9624023 -12.103859l-1.6806641 14.390213z" fill-rule="evenodd"/><path fill="#000000" fill-opacity="0.0" d="m334.3823 135.66743l92.031494 0l0 38.771652l-92.031494 0z" fill-rule="evenodd"/><path fill="#666666" d="m350.27145 160.02744l0 -1.234375l3.1875 -4.015625q0.5 -0.640625 0.65625 -0.84375q0.15625 -0.21875 0.3125 -0.609375q0.15625 -0.40625 0.15625 -0.953125q0 -0.546875 -0.375 -0.890625q-0.375 -0.359375 -0.96875 -0.359375q-0.578125 0 -0.875 0.09375q-0.296875 0.09375 -0.359375 0.21875q-0.046875 0.109375 -0.046875 0.375l0 1.125l-1.640625 -0.109375l0 -2.5625q1.515625 -0.75 3.09375 -0.75q1.578125 0 2.375 0.78125q0.8125 0.78125 0.8125 2.125q0 1.34375 -1.359375 2.984375l-2.578125 3.046875l4.0 0l0 1.578125l-6.390625 0zm7.7080383 -6.75l0 -1.296875l2.703125 0l0 1.03125q0.890625 -1.265625 2.453125 -1.265625q1.5625 0 2.109375 1.265625q0.890625 -1.265625 2.421875 -1.265625q1.15625 0 1.78125 0.703125q0.625 0.6875 0.625 2.078125l0 4.171875l0.90625 0.046875l0 1.28125l-3.8125 0l0 -1.21875l0.53125 -0.046875q0.25 -0.03125 0.34375 -0.125q0.109375 -0.109375 0.125 -0.390625l0 -3.3125q0 -0.875 -0.203125 -1.296875q-0.203125 -0.421875 -0.9375 -0.421875q-0.734375 0 -1.125 0.453125q-0.390625 0.4375 -0.390625 1.1875l0 3.84375l0.875 0.046875l0 1.28125l-3.765625 0l0 -1.21875l0.515625 -0.046875q0.25 -0.03125 0.359375 -0.125q0.109375 -0.109375 0.109375 -0.40625l0 -3.296875q0 -0.875 -0.203125 -1.296875q-0.203125 -0.421875 -0.953125 -0.421875q-0.734375 0 -1.125 0.46875q-0.375 0.453125 -0.375 1.140625l0 3.875l0.859375 0.046875l0 1.28125l-3.765625 0l0 -1.21875l0.53125 -0.046875q0.234375 -0.03125 0.34375 -0.125q0.109375 -0.109375 0.109375 -0.40625l0.015625 0l0 -4.40625q0 -0.28125 -0.09375 -0.375q-0.078125 -0.109375 -0.296875 -0.125l-0.671875 -0.046875zm17.621643 5.578125q1.75 0 1.75 -2.8125q0 -1.421875 -0.390625 -2.15625q-0.390625 -0.734375 -1.3125 -0.734375q-0.921875 0 -1.359375 0.703125q-0.421875 0.703125 -0.421875 1.921875q0 2.25 0.828125 2.828125q0.359375 0.25 0.90625 0.25zm-3.671875 -2.859375q0 -1.1875 0.34375 -2.046875q0.359375 -0.875 0.953125 -1.34375q1.125 -0.859375 2.515625 -0.859375q0.953125 0 1.609375 0.3125q0.671875 0.3125 1.046875 0.71875q0.375 0.40625 0.640625 1.1875q0.265625 0.765625 0.265625 1.828125q0 2.203125 -1.078125 3.34375q-1.0625 1.125 -2.734375 1.125q-1.671875 0 -2.625 -1.078125q-0.9375 -1.078125 -0.9375 -3.1875zm14.569916 -1.796875l0 -2.578125l1.640625 0l0 2.578125l2.453125 0l0 1.578125l-2.453125 0l0 2.546875l-1.640625 0l0 -2.546875l-2.46875 0l0 -1.578125l2.46875 0zm9.244385 5.828125l0 -1.234375l3.1875 -4.015625q0.5 -0.640625 0.65625 -0.84375q0.15625 -0.21875 0.3125 -0.609375q0.15625 -0.40625 0.15625 -0.953125q0 -0.546875 -0.375 -0.890625q-0.375 -0.359375 -0.96875 -0.359375q-0.578125 0 -0.875 0.09375q-0.296875 0.09375 -0.359375 0.21875q-0.046875 0.109375 -0.046875 0.375l0 1.125l-1.640625 -0.109375l0 -2.5625q1.515625 -0.75 3.09375 -0.75q1.578125 0 2.375 0.78125q0.8125 0.78125 0.8125 2.125q0 1.34375 -1.359375 2.984375l-2.578125 3.046875l4.0 0l0 1.578125l-6.390625 0zm11.473663 -1.171875q1.75 0 1.75 -2.8125q0 -1.421875 -0.390625 -2.15625q-0.390625 -0.734375 -1.3125 -0.734375q-0.921875 0 -1.359375 0.703125q-0.421875 0.703125 -0.421875 1.921875q0 2.25 0.828125 2.828125q0.359375 0.25 0.90625 0.25zm-3.671875 -2.859375q0 -1.1875 0.34375 -2.046875q0.359375 -0.875 0.953125 -1.34375q1.125 -0.859375 2.515625 -0.859375q0.953125 0 1.609375 0.3125q0.671875 0.3125 1.046875 0.71875q0.375 0.40625 0.640625 1.1875q0.265625 0.765625 0.265625 1.828125q0 2.203125 -1.078125 3.34375q-1.0625 1.125 -2.734375 1.125q-1.671875 0 -2.625 -1.078125q-0.9375 -1.078125 -0.9375 -3.1875z" fill-rule="nonzero"/></g></svg>